<?xml version="1.0" encoding="utf-8"?>
<!-- Generator: Adobe Illustrator 27.9.0, SVG Export Plug-In . SVG Version: 6.00 Build 0)  -->
<svg version="1.1" xmlns="http://www.w3.org/2000/svg" xmlns:xlink="http://www.w3.org/1999/xlink" x="0px" y="0px"
	 viewBox="0 0 249 249" style="enable-background:new 0 0 249 249;" xml:space="preserve">
<style type="text/css">
	.st0{display:none;}
	.st1{display:inline;}
	.st2{fill:#231F20;}
	.st3{fill:none;stroke:#F7B5C8;stroke-width:6;stroke-miterlimit:10;}
	.st4{fill:#F7B5C8;}
	.st5{fill:none;stroke:#F7B5C8;stroke-width:6;stroke-linecap:round;stroke-miterlimit:10;}
	.st6{fill:none;stroke:#F7B5C8;stroke-width:7;stroke-linecap:round;stroke-miterlimit:10;}
	.st7{fill:none;stroke:#F7B5C8;stroke-width:4;stroke-linecap:round;stroke-miterlimit:10;}
	.st8{fill:none;}
	.st9{font-family:'OpenSans-Light';}
	.st10{font-size:28.7233px;}
</style>
<g id="Layer_1" class="st0">
	<g class="st1">
		<path class="st2" d="M57.13,80.2h12.51c3.95,0,6.95,0.31,8.98,0.92c2.04,0.62,3.68,1.86,4.93,3.74s1.88,4.9,1.88,9.06
			c0,2.82-0.44,4.78-1.33,5.89c-0.88,1.11-2.63,1.96-5.23,2.56c2.9,0.66,4.87,1.74,5.9,3.26c1.03,1.52,1.55,3.85,1.55,6.99v4.47
			c0,3.26-0.37,5.67-1.12,7.24c-0.74,1.57-1.93,2.64-3.56,3.22s-4.96,0.86-10.01,0.86h-14.5V80.2z M69.67,88.45v10.72
			c0.54-0.02,0.95-0.03,1.25-0.03c1.23,0,2.02-0.3,2.35-0.91c0.34-0.61,0.51-2.34,0.51-5.2c0-1.51-0.14-2.57-0.42-3.17
			c-0.28-0.61-0.64-0.99-1.09-1.15C71.83,88.56,70.96,88.47,69.67,88.45z M69.67,106.68v13.49c1.77-0.06,2.89-0.34,3.38-0.83
			c0.49-0.5,0.73-1.72,0.73-3.66v-4.5c0-2.07-0.22-3.32-0.66-3.75C72.69,106.99,71.54,106.74,69.67,106.68z"/>
		<path class="st2" d="M112.5,80.2l7.17,48.23h-12.82l-0.67-8.67h-4.49l-0.75,8.67H87.97l6.4-48.23H112.5z M105.85,111.21
			c-0.63-5.46-1.27-12.21-1.91-20.26c-1.28,9.24-2.08,15.99-2.41,20.26H105.85z"/>
		<path class="st2" d="M151.08,101.2h-12.54v-8.38c0-2.44-0.13-3.96-0.4-4.56c-0.27-0.6-0.86-0.91-1.77-0.91
			c-1.03,0-1.69,0.37-1.97,1.1c-0.28,0.73-0.42,2.32-0.42,4.77v22.4c0,2.34,0.14,3.87,0.42,4.59c0.28,0.71,0.9,1.07,1.88,1.07
			c0.93,0,1.54-0.36,1.83-1.07c0.29-0.72,0.43-2.4,0.43-5.05v-6.06h12.54v1.88c0,4.99-0.35,8.53-1.06,10.62
			c-0.7,2.09-2.26,3.92-4.68,5.49c-2.41,1.57-5.39,2.36-8.92,2.36c-3.67,0-6.7-0.67-9.09-2c-2.38-1.33-3.96-3.17-4.74-5.53
			c-0.77-2.35-1.16-5.89-1.16-10.62V97.21c0-3.47,0.12-6.08,0.36-7.82s0.95-3.41,2.13-5.02c1.18-1.61,2.82-2.87,4.91-3.8
			c2.1-0.92,4.5-1.39,7.22-1.39c3.69,0,6.74,0.71,9.15,2.14c2.4,1.43,3.98,3.21,4.74,5.34s1.13,5.45,1.13,9.95L151.08,101.2
			L151.08,101.2z"/>
		<path class="st2" d="M185.47,80.2l-7.19,21.78l7.88,26.45H173.2l-5.08-20.67v20.67h-12.54V80.2h12.54v18.74l5.59-18.74H185.47z"/>
	</g>
	<g class="st1">
		<path class="st2" d="M72.64,132.57v6.47h-4.99v25.85h-8.4v-25.85h-4.97v-6.47H72.64z"/>
		<path class="st2" d="M93.76,151.49c0,3.25-0.08,5.55-0.23,6.9c-0.15,1.35-0.63,2.59-1.44,3.7c-0.81,1.12-1.89,1.98-3.26,2.58
			s-2.97,0.9-4.79,0.9c-1.73,0-3.28-0.28-4.66-0.85c-1.38-0.57-2.49-1.41-3.32-2.55c-0.84-1.13-1.34-2.36-1.5-3.69
			s-0.24-3.66-0.24-6.99v-5.53c0-3.25,0.08-5.55,0.23-6.9c0.15-1.35,0.63-2.59,1.44-3.7c0.81-1.12,1.89-1.98,3.26-2.58
			s2.97-0.9,4.79-0.9c1.73,0,3.28,0.28,4.66,0.85s2.49,1.41,3.32,2.55c0.84,1.13,1.34,2.36,1.5,3.69s0.24,3.66,0.24,6.99
			C93.76,145.96,93.76,151.49,93.76,151.49z M85.36,140.87c0-1.5-0.08-2.47-0.25-2.88c-0.17-0.42-0.51-0.63-1.03-0.63
			c-0.44,0-0.78,0.17-1.01,0.51s-0.35,1.34-0.35,3v15.09c0,1.88,0.08,3.03,0.23,3.47s0.51,0.66,1.07,0.66c0.57,0,0.94-0.25,1.1-0.76
			c0.16-0.51,0.24-1.71,0.24-3.61V140.87z"/>
		<path class="st2" d="M123.72,146.64h-8.4v-5.62c0-1.63-0.09-2.65-0.27-3.06c-0.18-0.4-0.58-0.61-1.19-0.61
			c-0.69,0-1.13,0.25-1.32,0.74s-0.28,1.56-0.28,3.19v15.01c0,1.57,0.09,2.6,0.28,3.07c0.19,0.48,0.61,0.72,1.26,0.72
			c0.63,0,1.03-0.24,1.23-0.72c0.19-0.48,0.29-1.61,0.29-3.38v-4.06h8.4v1.26c0,3.35-0.24,5.72-0.71,7.12s-1.52,2.63-3.13,3.68
			c-1.62,1.05-3.61,1.58-5.98,1.58c-2.46,0-4.49-0.45-6.09-1.34s-2.65-2.13-3.17-3.7c-0.52-1.58-0.78-3.95-0.78-7.12v-9.44
			c0-2.33,0.08-4.08,0.24-5.24c0.16-1.16,0.64-2.29,1.43-3.36c0.79-1.08,1.89-1.93,3.29-2.55c1.4-0.62,3.02-0.93,4.84-0.93
			c2.48,0,4.52,0.48,6.13,1.44s2.67,2.15,3.17,3.58c0.51,1.43,0.76,3.65,0.76,6.67L123.72,146.64L123.72,146.64z"/>
		<path class="st2" d="M145.94,151.49c0,3.25-0.08,5.55-0.23,6.9c-0.15,1.35-0.63,2.59-1.44,3.7c-0.81,1.12-1.89,1.98-3.26,2.58
			s-2.97,0.9-4.79,0.9c-1.73,0-3.28-0.28-4.66-0.85s-2.49-1.41-3.32-2.55c-0.84-1.13-1.34-2.36-1.5-3.69s-0.24-3.66-0.24-6.99v-5.53
			c0-3.25,0.08-5.55,0.23-6.9c0.15-1.35,0.63-2.59,1.44-3.7c0.81-1.12,1.89-1.98,3.26-2.58s2.97-0.9,4.79-0.9
			c1.73,0,3.28,0.28,4.66,0.85s2.49,1.41,3.32,2.55c0.84,1.13,1.34,2.36,1.5,3.69s0.24,3.66,0.24,6.99L145.94,151.49L145.94,151.49z
			 M137.54,140.87c0-1.5-0.08-2.47-0.25-2.88c-0.17-0.42-0.51-0.63-1.03-0.63c-0.44,0-0.78,0.17-1.01,0.51s-0.35,1.34-0.35,3v15.09
			c0,1.88,0.08,3.03,0.23,3.47s0.51,0.66,1.07,0.66c0.57,0,0.94-0.25,1.1-0.76s0.24-1.71,0.24-3.61L137.54,140.87L137.54,140.87z"/>
		<path class="st2" d="M149.08,132.57h5.95c3.97,0,6.65,0.15,8.05,0.46c1.4,0.31,2.55,1.09,3.43,2.35c0.88,1.26,1.33,3.26,1.33,6.02
			c0,2.52-0.31,4.21-0.94,5.07c-0.63,0.87-1.86,1.38-3.69,1.56c1.66,0.41,2.78,0.97,3.35,1.66s0.93,1.33,1.07,1.91
			c0.14,0.58,0.21,2.17,0.21,4.78v8.52h-7.81v-10.74c0-1.73-0.14-2.8-0.41-3.21s-0.99-0.62-2.15-0.62v14.57h-8.4L149.08,132.57
			L149.08,132.57z M157.48,138.1v7.19c0.94,0,1.61-0.13,1.99-0.39s0.57-1.1,0.57-2.53v-1.78c0-1.02-0.18-1.7-0.55-2.02
			S158.45,138.1,157.48,138.1z"/>
		<path class="st2" d="M171.09,132.57h14.01v6.47h-5.61v6.13h5.25v6.15h-5.25v7.11h6.17v6.47h-14.57V132.57z"/>
	</g>
</g>
<g id="Layer_2">
	<circle class="st3" cx="91.87" cy="125.03" r="29.64"/>
	<path class="st4" d="M124.66,114.66c0.55,2.42,8.73-13.26-0.94-22.55c-9.82-8.95-20.57,0-20.57,0S120.47,96.32,124.66,114.66z"/>
	<line class="st5" x1="65.18" y1="153.67" x2="71.41" y2="146.48"/>
	<line class="st5" x1="118.92" y1="153.67" x2="112.33" y2="146.48"/>
	<polyline class="st6" points="79.59,112.77 91.87,127.82 101.84,120.29 	"/>
	<polyline class="st7" points="96.45,68.22 104.76,71.82 91.75,80.13 100.37,83.58 	"/>
	<polyline class="st7" points="113.53,66.12 121.84,69.73 108.83,78.03 117.45,81.48 	"/>
	<rect x="133.31" y="97.74" class="st8" width="76.42" height="61.69"/>
	<text transform="matrix(1 0 0 1 133.3093 119.5719)"><tspan x="0" y="0" class="st9 st10">Beaty </tspan><tspan x="0" y="29.97" class="st9 st10">sleep</tspan></text>
	<path class="st4" d="M85.34,90.91c2.48-0.23-11.99-10.4-22.47-2.05c-10.17,8.55-2.72,20.39-2.72,20.39S66.6,92.65,85.34,90.91z"/>
</g>
</svg>
