<?xml version="1.0" encoding="utf-8"?>
<!-- Generator: Adobe Illustrator 27.9.0, SVG Export Plug-In . SVG Version: 6.00 Build 0)  -->
<svg version="1.1" id="Layer_1" xmlns="http://www.w3.org/2000/svg" xmlns:xlink="http://www.w3.org/1999/xlink" x="0px" y="0px"
	 viewBox="0 0 249 249" style="enable-background:new 0 0 249 249;" xml:space="preserve">
<style type="text/css">
	.st0{display:none;}
	.st1{display:inline;}
	.st2{fill:#231F20;}
	.st3{fill:#00879A;}
	.st4{opacity:0.73;}
	.st5{fill:#9DD7D6;}
	
		.st6{clip-path:url(#SVGID_00000134251463652098296230000011033937676403725977_);fill-rule:evenodd;clip-rule:evenodd;fill:#9DD7D6;}
	
		.st7{clip-path:url(#SVGID_00000140695610639996710610000016236438328272398502_);fill-rule:evenodd;clip-rule:evenodd;fill:#9DD7D6;}
	
		.st8{clip-path:url(#SVGID_00000150809134254230778910000008023007631283195545_);fill-rule:evenodd;clip-rule:evenodd;fill:#9DD7D6;}
	
		.st9{clip-path:url(#SVGID_00000179622607249917530330000014039527466750979980_);fill-rule:evenodd;clip-rule:evenodd;fill:#9DD7D6;}
	
		.st10{clip-path:url(#SVGID_00000088849706647270515870000000964922663842713239_);fill-rule:evenodd;clip-rule:evenodd;fill:#9DD7D6;}
	
		.st11{clip-path:url(#SVGID_00000132784679604224711160000009248192531966795912_);fill-rule:evenodd;clip-rule:evenodd;fill:#9DD7D6;}
	.st12{fill:#3CC0C9;}
	.st13{font-family:'Impact';}
	.st14{font-size:47.3958px;}
</style>
<g id="Layer_1_00000083090870804532297970000003767636439909438137_" class="st0">
	<g class="st1">
		<path class="st2" d="M57.13,78.2h12.51c3.95,0,6.95,0.31,8.98,0.92c2.04,0.62,3.68,1.86,4.93,3.74s1.88,4.9,1.88,9.06
			c0,2.82-0.44,4.78-1.33,5.89c-0.88,1.11-2.63,1.96-5.23,2.56c2.9,0.66,4.87,1.74,5.9,3.26c1.03,1.52,1.55,3.85,1.55,6.99v4.47
			c0,3.26-0.37,5.67-1.12,7.24c-0.74,1.57-1.93,2.64-3.56,3.22s-4.96,0.86-10.01,0.86h-14.5V78.2z M69.67,86.45v10.72
			c0.54-0.02,0.95-0.03,1.25-0.03c1.23,0,2.02-0.3,2.35-0.91c0.34-0.61,0.51-2.34,0.51-5.2c0-1.51-0.14-2.57-0.42-3.17
			c-0.28-0.61-0.64-0.99-1.09-1.15C71.83,86.56,70.96,86.47,69.67,86.45z M69.67,104.68v13.49c1.77-0.06,2.89-0.34,3.38-0.83
			c0.49-0.5,0.73-1.72,0.73-3.66v-4.5c0-2.07-0.22-3.32-0.66-3.75C72.69,104.99,71.54,104.74,69.67,104.68z"/>
		<path class="st2" d="M112.5,78.2l7.17,48.23h-12.82l-0.67-8.67h-4.49l-0.75,8.67H87.97l6.4-48.23H112.5z M105.85,109.21
			c-0.63-5.46-1.27-12.21-1.91-20.26c-1.28,9.24-2.08,15.99-2.41,20.26H105.85z"/>
		<path class="st2" d="M151.08,99.2h-12.54v-8.38c0-2.44-0.13-3.96-0.4-4.56c-0.27-0.6-0.86-0.91-1.77-0.91
			c-1.03,0-1.69,0.37-1.97,1.1c-0.28,0.73-0.42,2.32-0.42,4.77v22.4c0,2.34,0.14,3.87,0.42,4.59c0.28,0.71,0.9,1.07,1.88,1.07
			c0.93,0,1.54-0.36,1.83-1.07c0.29-0.72,0.43-2.4,0.43-5.05v-6.06h12.54v1.88c0,4.99-0.35,8.53-1.06,10.62
			c-0.7,2.09-2.26,3.92-4.68,5.49c-2.41,1.57-5.39,2.36-8.92,2.36c-3.67,0-6.7-0.67-9.09-2c-2.38-1.33-3.96-3.17-4.74-5.53
			c-0.77-2.35-1.16-5.89-1.16-10.62V95.21c0-3.47,0.12-6.08,0.36-7.82s0.95-3.41,2.13-5.02c1.18-1.61,2.82-2.87,4.91-3.8
			c2.1-0.92,4.5-1.39,7.22-1.39c3.69,0,6.74,0.71,9.15,2.14c2.4,1.43,3.98,3.21,4.74,5.34s1.13,5.45,1.13,9.95L151.08,99.2
			L151.08,99.2z"/>
		<path class="st2" d="M185.47,78.2l-7.19,21.78l7.88,26.45H173.2l-5.08-20.67v20.67h-12.54V78.2h12.54v18.74l5.59-18.74H185.47z"/>
	</g>
	<g class="st1">
		<path class="st2" d="M72.64,130.57v6.47h-4.99v25.85h-8.4v-25.85h-4.97v-6.47H72.64z"/>
		<path class="st2" d="M93.76,149.49c0,3.25-0.08,5.55-0.23,6.9c-0.15,1.35-0.63,2.59-1.44,3.7c-0.81,1.12-1.89,1.98-3.26,2.58
			s-2.97,0.9-4.79,0.9c-1.73,0-3.28-0.28-4.66-0.85c-1.38-0.57-2.49-1.41-3.32-2.55c-0.84-1.13-1.34-2.36-1.5-3.69
			s-0.24-3.66-0.24-6.99v-5.53c0-3.25,0.08-5.55,0.23-6.9c0.15-1.35,0.63-2.59,1.44-3.7c0.81-1.12,1.89-1.98,3.26-2.58
			s2.97-0.9,4.79-0.9c1.73,0,3.28,0.28,4.66,0.85s2.49,1.41,3.32,2.55c0.84,1.13,1.34,2.36,1.5,3.69s0.24,3.66,0.24,6.99
			C93.76,143.96,93.76,149.49,93.76,149.49z M85.36,138.87c0-1.5-0.08-2.47-0.25-2.88c-0.17-0.42-0.51-0.63-1.03-0.63
			c-0.44,0-0.78,0.17-1.01,0.51s-0.35,1.34-0.35,3v15.09c0,1.88,0.08,3.03,0.23,3.47s0.51,0.66,1.07,0.66c0.57,0,0.94-0.25,1.1-0.76
			c0.16-0.51,0.24-1.71,0.24-3.61V138.87z"/>
		<path class="st2" d="M123.72,144.64h-8.4v-5.62c0-1.63-0.09-2.65-0.27-3.06c-0.18-0.4-0.58-0.61-1.19-0.61
			c-0.69,0-1.13,0.25-1.32,0.74s-0.28,1.56-0.28,3.19v15.01c0,1.57,0.09,2.6,0.28,3.07c0.19,0.48,0.61,0.72,1.26,0.72
			c0.63,0,1.03-0.24,1.23-0.72c0.19-0.48,0.29-1.61,0.29-3.38v-4.06h8.4v1.26c0,3.35-0.24,5.72-0.71,7.12s-1.52,2.63-3.13,3.68
			c-1.62,1.05-3.61,1.58-5.98,1.58c-2.46,0-4.49-0.45-6.09-1.34s-2.65-2.13-3.17-3.7c-0.52-1.58-0.78-3.95-0.78-7.12v-9.44
			c0-2.33,0.08-4.08,0.24-5.24c0.16-1.16,0.64-2.29,1.43-3.36c0.79-1.08,1.89-1.93,3.29-2.55c1.4-0.62,3.02-0.93,4.84-0.93
			c2.48,0,4.52,0.48,6.13,1.44s2.67,2.15,3.17,3.58c0.51,1.43,0.76,3.65,0.76,6.67L123.72,144.64L123.72,144.64z"/>
		<path class="st2" d="M145.94,149.49c0,3.25-0.08,5.55-0.23,6.9c-0.15,1.35-0.63,2.59-1.44,3.7c-0.81,1.12-1.89,1.98-3.26,2.58
			s-2.97,0.9-4.79,0.9c-1.73,0-3.28-0.28-4.66-0.85s-2.49-1.41-3.32-2.55c-0.84-1.13-1.34-2.36-1.5-3.69s-0.24-3.66-0.24-6.99v-5.53
			c0-3.25,0.08-5.55,0.23-6.9c0.15-1.35,0.63-2.59,1.44-3.7c0.81-1.12,1.89-1.98,3.26-2.58s2.97-0.9,4.79-0.9
			c1.73,0,3.28,0.28,4.66,0.85s2.49,1.41,3.32,2.55c0.84,1.13,1.34,2.36,1.5,3.69s0.24,3.66,0.24,6.99L145.94,149.49L145.94,149.49z
			 M137.54,138.87c0-1.5-0.08-2.47-0.25-2.88c-0.17-0.42-0.51-0.63-1.03-0.63c-0.44,0-0.78,0.17-1.01,0.51s-0.35,1.34-0.35,3v15.09
			c0,1.88,0.08,3.03,0.23,3.47s0.51,0.66,1.07,0.66c0.57,0,0.94-0.25,1.1-0.76s0.24-1.71,0.24-3.61L137.54,138.87L137.54,138.87z"/>
		<path class="st2" d="M149.08,130.57h5.95c3.97,0,6.65,0.15,8.05,0.46c1.4,0.31,2.55,1.09,3.43,2.35c0.88,1.26,1.33,3.26,1.33,6.02
			c0,2.52-0.31,4.21-0.94,5.07c-0.63,0.87-1.86,1.38-3.69,1.56c1.66,0.41,2.78,0.97,3.35,1.66s0.93,1.33,1.07,1.91
			c0.14,0.58,0.21,2.17,0.21,4.78v8.52h-7.81v-10.74c0-1.73-0.14-2.8-0.41-3.21s-0.99-0.62-2.15-0.62v14.57h-8.4L149.08,130.57
			L149.08,130.57z M157.48,136.1v7.19c0.94,0,1.61-0.13,1.99-0.39s0.57-1.1,0.57-2.53v-1.78c0-1.02-0.18-1.7-0.55-2.02
			S158.45,136.1,157.48,136.1z"/>
		<path class="st2" d="M171.09,130.57h14.01v6.47h-5.61v6.13h5.25v6.15h-5.25v7.11h6.17v6.47h-14.57V130.57z"/>
	</g>
</g>
<g id="Layer_2_00000124154686509252688770000008580297599536475296_">
	<g>
		<g>
			<path class="st3" d="M103.35,162.64h1.75c0.81,0,1.4,0.12,1.76,0.35c0.36,0.23,0.54,0.61,0.54,1.12c0,0.34-0.09,0.63-0.27,0.85
				c-0.18,0.22-0.43,0.37-0.77,0.43v0.04c0.41,0.08,0.72,0.23,0.91,0.46c0.2,0.23,0.29,0.54,0.29,0.93c0,0.53-0.18,0.94-0.55,1.24
				c-0.37,0.3-0.88,0.45-1.54,0.45h-2.13C103.35,168.52,103.35,162.64,103.35,162.64z M104.32,165.08h0.92
				c0.41,0,0.7-0.06,0.88-0.19c0.18-0.13,0.28-0.34,0.28-0.65c0-0.28-0.1-0.47-0.3-0.6c-0.2-0.12-0.52-0.18-0.95-0.18h-0.84
				L104.32,165.08L104.32,165.08z M104.32,165.85v1.86h1.03c0.41,0,0.71-0.08,0.91-0.23c0.21-0.16,0.31-0.4,0.31-0.73
				c0-0.31-0.1-0.53-0.31-0.68c-0.21-0.15-0.53-0.22-0.96-0.22L104.32,165.85L104.32,165.85z"/>
			<path class="st3" d="M114.76,165.58c0,0.96-0.24,1.71-0.72,2.23c-0.48,0.53-1.15,0.79-2.03,0.79c-0.89,0-1.57-0.27-2.05-0.79
				c-0.47-0.53-0.72-1.28-0.72-2.25s0.24-1.71,0.72-2.24c0.48-0.52,1.16-0.78,2.05-0.78c0.88,0,1.55,0.27,2.03,0.79
				C114.51,163.85,114.76,164.62,114.76,165.58z M110.27,165.58c0,0.72,0.15,1.28,0.44,1.65c0.29,0.37,0.72,0.56,1.3,0.56
				c0.57,0,1-0.18,1.29-0.55s0.44-0.92,0.44-1.65c0-0.72-0.15-1.27-0.43-1.65c-0.28-0.37-0.72-0.56-1.29-0.56
				c-0.58,0-1.01,0.19-1.31,0.56C110.41,164.31,110.27,164.85,110.27,165.58z"/>
			<path class="st3" d="M121.98,165.58c0,0.96-0.24,1.71-0.72,2.23c-0.48,0.53-1.15,0.79-2.03,0.79c-0.89,0-1.57-0.27-2.05-0.79
				c-0.47-0.53-0.72-1.28-0.72-2.25s0.24-1.71,0.72-2.24c0.48-0.52,1.16-0.78,2.05-0.78c0.88,0,1.55,0.27,2.03,0.79
				C121.73,163.85,121.98,164.62,121.98,165.58z M117.49,165.58c0,0.72,0.15,1.28,0.44,1.65c0.29,0.37,0.72,0.56,1.3,0.56
				c0.57,0,1-0.18,1.29-0.55s0.44-0.92,0.44-1.65c0-0.72-0.15-1.27-0.43-1.65c-0.28-0.37-0.72-0.56-1.29-0.56
				c-0.58,0-1.01,0.19-1.31,0.56C117.63,164.31,117.49,164.85,117.49,165.58z"/>
			<path class="st3" d="M127.37,166.93c0,0.53-0.19,0.93-0.57,1.23c-0.38,0.3-0.9,0.45-1.57,0.45c-0.66,0-1.21-0.1-1.64-0.31v-0.91
				c0.27,0.13,0.55,0.22,0.85,0.3c0.3,0.07,0.59,0.11,0.84,0.11c0.38,0,0.66-0.07,0.84-0.22c0.18-0.15,0.28-0.34,0.28-0.59
				c0-0.22-0.09-0.41-0.25-0.56s-0.51-0.34-1.03-0.54c-0.53-0.22-0.91-0.47-1.14-0.74c-0.22-0.28-0.33-0.61-0.33-1.01
				c0-0.49,0.17-0.88,0.53-1.16c0.34-0.28,0.82-0.42,1.4-0.42c0.56,0,1.12,0.12,1.68,0.37l-0.31,0.78c-0.53-0.22-0.99-0.33-1.4-0.33
				c-0.31,0-0.55,0.07-0.71,0.21c-0.16,0.14-0.24,0.32-0.24,0.53c0,0.16,0.03,0.28,0.09,0.4c0.06,0.11,0.17,0.22,0.32,0.31
				s0.41,0.22,0.79,0.38c0.43,0.18,0.75,0.34,0.95,0.5c0.2,0.16,0.34,0.33,0.44,0.53C127.33,166.43,127.37,166.66,127.37,166.93z"/>
			<path class="st3" d="M131.28,168.52h-0.97v-5.06h-1.73v-0.83h4.42v0.83h-1.73L131.28,168.52L131.28,168.52z"/>
			<path class="st3" d="M134.66,162.64h1.75c0.81,0,1.4,0.12,1.76,0.35c0.36,0.23,0.54,0.61,0.54,1.12c0,0.34-0.09,0.63-0.27,0.85
				c-0.18,0.22-0.43,0.37-0.77,0.43v0.04c0.41,0.08,0.72,0.23,0.91,0.46c0.2,0.23,0.29,0.54,0.29,0.93c0,0.53-0.18,0.94-0.55,1.24
				c-0.37,0.3-0.88,0.45-1.54,0.45h-2.13V162.64z M135.62,165.08h0.92c0.41,0,0.7-0.06,0.88-0.19c0.18-0.13,0.28-0.34,0.28-0.65
				c0-0.28-0.1-0.47-0.3-0.6c-0.2-0.12-0.52-0.18-0.95-0.18h-0.84L135.62,165.08L135.62,165.08z M135.62,165.85v1.86h1.03
				c0.41,0,0.71-0.08,0.91-0.23c0.21-0.16,0.31-0.4,0.31-0.73c0-0.31-0.1-0.53-0.31-0.68c-0.21-0.15-0.53-0.22-0.96-0.22
				L135.62,165.85L135.62,165.85z"/>
			<path class="st3" d="M146.06,165.58c0,0.96-0.24,1.71-0.72,2.23c-0.48,0.53-1.15,0.79-2.03,0.79c-0.89,0-1.57-0.27-2.05-0.79
				c-0.47-0.53-0.72-1.28-0.72-2.25s0.24-1.71,0.72-2.24c0.48-0.52,1.16-0.78,2.05-0.78c0.88,0,1.55,0.27,2.03,0.79
				C145.81,163.85,146.06,164.62,146.06,165.58z M141.56,165.58c0,0.72,0.15,1.28,0.44,1.65c0.29,0.37,0.72,0.56,1.3,0.56
				c0.57,0,1-0.18,1.29-0.55s0.44-0.92,0.44-1.65c0-0.72-0.15-1.27-0.43-1.65c-0.28-0.37-0.72-0.56-1.29-0.56
				c-0.58,0-1.01,0.19-1.31,0.56C141.72,164.31,141.56,164.85,141.56,165.58z"/>
			<path class="st3" d="M152.4,168.52h-1.1l-1.47-2.4l-1.48,2.4h-1.03l1.96-3.05l-1.83-2.84h1.07l1.36,2.22l1.36-2.22h1.04
				l-1.84,2.85L152.4,168.52z"/>
		</g>
		<g>
			<g class="st4">
				<g>
					<path class="st5" d="M53.91,108.31l3.62,2.09l0.28,0.16v0.33v4.18v0.31l-0.28,0.17l-3.62,2.09l-0.28,0.16l-0.28-0.16
						l-3.62-2.09l-0.28-0.17v-0.31v-4.18v-0.33l0.28-0.16l3.62-2.09l0.28-0.17L53.91,108.31z M56.69,111.18l-3.06-1.77l-3.06,1.77
						v3.54l3.06,1.77l3.06-1.77V111.18z"/>
					<g>
						<g>
							<defs>
								<rect id="SVGID_1_" x="37.82" y="95.95" width="31.62" height="34.03"/>
							</defs>
							<clipPath id="SVGID_00000049920136908398479020000006243623153876325020_">
								<use xlink:href="#SVGID_1_"  style="overflow:visible;"/>
							</clipPath>
							
								<path style="clip-path:url(#SVGID_00000049920136908398479020000006243623153876325020_);fill-rule:evenodd;clip-rule:evenodd;fill:#9DD7D6;" d="
								M54.18,96.51v1.36l1.46-1.46c0.22-0.22,0.57-0.22,0.79,0c0.22,0.22,0.22,0.57,0,0.79l-2.24,2.24v2.1l2.96-2.94
								c0.22-0.22,0.57-0.22,0.79,0c0.22,0.22,0.22,0.57,0,0.79l-3.74,3.73v2.37l1.27-1.25c0.22-0.22,0.57-0.22,0.79,0
								c0.22,0.22,0.22,0.57,0,0.78l-2.06,2.04v1.64c0,0.29-0.25,0.56-0.56,0.56c-0.31,0-0.56-0.26-0.56-0.56v-1.64l-2.06-2.04
								c-0.22-0.22-0.22-0.57,0-0.78c0.22-0.22,0.57-0.22,0.79,0l1.27,1.25v-2.37l-3.74-3.73c-0.22-0.22-0.22-0.57,0-0.79
								c0.22-0.22,0.57-0.22,0.79,0l2.96,2.94v-2.1l-2.24-2.24c-0.22-0.22-0.22-0.57,0-0.79c0.22-0.22,0.57-0.22,0.79,0l1.46,1.46
								v-1.36c0-0.31,0.25-0.56,0.56-0.56C53.97,95.95,54.18,96.2,54.18,96.51"/>
						</g>
						<g>
							<defs>
								<rect id="SVGID_00000027604828025809617190000006124277512800116904_" x="37.82" y="95.95" width="31.62" height="34.03"/>
							</defs>
							<clipPath id="SVGID_00000147212051690188279940000013879985260339831426_">
								<use xlink:href="#SVGID_00000027604828025809617190000006124277512800116904_"  style="overflow:visible;"/>
							</clipPath>
							
								<path style="clip-path:url(#SVGID_00000147212051690188279940000013879985260339831426_);fill-rule:evenodd;clip-rule:evenodd;fill:#9DD7D6;" d="
								M39.66,104.26l1.17,0.68l-0.53-1.98c-0.09-0.31,0.09-0.6,0.39-0.68c0.29-0.09,0.6,0.09,0.68,0.39l0.82,3.06l1.84,1.05
								l-1.07-4.03c-0.09-0.29,0.09-0.6,0.39-0.68c0.29-0.08,0.6,0.11,0.68,0.41l1.36,5.1l2.04,1.17l-0.47-1.71
								c-0.08-0.29,0.11-0.6,0.41-0.68c0.29-0.09,0.6,0.09,0.68,0.39l0.74,2.8l1.42,0.82c0.27,0.16,0.35,0.49,0.2,0.76
								c-0.16,0.26-0.49,0.35-0.76,0.2l-1.4-0.8l-2.82,0.74c-0.29,0.08-0.6-0.09-0.68-0.39c-0.08-0.29,0.09-0.6,0.41-0.68l1.71-0.47
								l-2.04-1.19l-5.1,1.38c-0.29,0.09-0.6-0.09-0.68-0.39c-0.08-0.29,0.09-0.6,0.39-0.68l4.03-1.09l-1.84-1.05l-3.06,0.82
								c-0.29,0.08-0.6-0.11-0.68-0.41c-0.08-0.29,0.11-0.6,0.41-0.68l1.98-0.53l-1.17-0.68c-0.26-0.16-0.35-0.49-0.2-0.76
								C39.06,104.2,39.4,104.1,39.66,104.26"/>
						</g>
						<g>
							<defs>
								<rect id="SVGID_00000082346403906666402650000003740020924800473788_" x="37.82" y="95.95" width="31.62" height="34.03"/>
							</defs>
							<clipPath id="SVGID_00000183232727602746502740000005233227539656023215_">
								<use xlink:href="#SVGID_00000082346403906666402650000003740020924800473788_"  style="overflow:visible;"/>
							</clipPath>
							
								<path style="clip-path:url(#SVGID_00000183232727602746502740000005233227539656023215_);fill-rule:evenodd;clip-rule:evenodd;fill:#9DD7D6;" d="
								M39.1,120.72l1.17-0.68l-1.98-0.54c-0.29-0.08-0.48-0.39-0.41-0.68c0.08-0.29,0.39-0.47,0.68-0.39l3.06,0.82l1.84-1.07
								l-4.03-1.09c-0.29-0.09-0.47-0.39-0.39-0.68c0.08-0.31,0.39-0.48,0.68-0.41l5.1,1.38l2.04-1.17l-1.71-0.47
								c-0.31-0.08-0.48-0.39-0.41-0.68s0.39-0.48,0.68-0.41l2.82,0.76l1.4-0.82c0.27-0.16,0.6-0.06,0.76,0.2
								c0.16,0.28,0.06,0.62-0.2,0.78l-1.42,0.8l-0.74,2.82c-0.08,0.29-0.39,0.47-0.68,0.39c-0.29-0.08-0.48-0.39-0.41-0.68
								l0.47-1.73l-2.04,1.19l-1.36,5.1c-0.08,0.29-0.39,0.48-0.68,0.39c-0.29-0.08-0.48-0.39-0.39-0.68l1.07-4.02l-1.84,1.05
								l-0.82,3.06c-0.08,0.29-0.39,0.47-0.68,0.39c-0.29-0.08-0.48-0.39-0.39-0.68l0.53-1.98l-1.17,0.68
								c-0.27,0.16-0.6,0.06-0.76-0.2C38.75,121.21,38.84,120.85,39.1,120.72"/>
						</g>
						<g>
							<defs>
								<rect id="SVGID_00000106846841612185944260000000687366218790661529_" x="37.82" y="95.95" width="31.62" height="34.03"/>
							</defs>
							<clipPath id="SVGID_00000114046458817986856040000009057036550483190179_">
								<use xlink:href="#SVGID_00000106846841612185944260000000687366218790661529_"  style="overflow:visible;"/>
							</clipPath>
							
								<path style="clip-path:url(#SVGID_00000114046458817986856040000009057036550483190179_);fill-rule:evenodd;clip-rule:evenodd;fill:#9DD7D6;" d="
								M53.07,129.42v-1.36l-1.46,1.46c-0.22,0.22-0.57,0.22-0.79,0c-0.22-0.22-0.22-0.57,0-0.79l2.24-2.24v-2.12l-2.96,2.94
								c-0.22,0.22-0.57,0.22-0.79,0c-0.22-0.22-0.22-0.57,0-0.78l3.74-3.73v-2.37l-1.27,1.27c-0.22,0.22-0.57,0.22-0.79,0
								c-0.22-0.22-0.22-0.57,0-0.78l2.06-2.06v-1.62c0-0.31,0.25-0.56,0.56-0.56c0.31,0,0.56,0.25,0.56,0.56v1.62l2.06,2.06
								c0.22,0.22,0.22,0.57,0,0.78s-0.57,0.22-0.79,0l-1.27-1.27v2.37l3.74,3.73c0.22,0.22,0.22,0.57,0,0.78s-0.57,0.22-0.79,0
								l-2.96-2.94v2.12l2.24,2.24c0.22,0.22,0.22,0.57,0,0.79c-0.22,0.22-0.57,0.22-0.79,0l-1.46-1.46v1.36
								c0,0.29-0.25,0.56-0.56,0.56C53.32,129.98,53.07,129.72,53.07,129.42"/>
						</g>
						<g>
							<defs>
								<rect id="SVGID_00000107587932549562585420000016901970853643382440_" x="37.82" y="95.95" width="31.62" height="34.03"/>
							</defs>
							<clipPath id="SVGID_00000010281494634010058770000017106318060480025238_">
								<use xlink:href="#SVGID_00000107587932549562585420000016901970853643382440_"  style="overflow:visible;"/>
							</clipPath>
							
								<path style="clip-path:url(#SVGID_00000010281494634010058770000017106318060480025238_);fill-rule:evenodd;clip-rule:evenodd;fill:#9DD7D6;" d="
								M67.59,121.67l-1.17-0.68l0.54,1.98c0.08,0.29-0.11,0.6-0.41,0.68c-0.29,0.08-0.6-0.09-0.68-0.39l-0.82-3.06l-1.83-1.05
								l1.07,4.02c0.08,0.29-0.11,0.6-0.41,0.68c-0.29,0.09-0.6-0.09-0.68-0.39l-1.34-5.1l-2.06-1.19l0.47,1.73
								c0.08,0.29-0.1,0.6-0.41,0.68c-0.29,0.08-0.6-0.09-0.68-0.39l-0.74-2.82l-1.42-0.8c-0.26-0.16-0.35-0.49-0.2-0.78
								c0.16-0.26,0.49-0.35,0.76-0.2l1.42,0.82l2.8-0.76c0.29-0.08,0.6,0.11,0.68,0.41c0.08,0.29-0.09,0.6-0.39,0.68l-1.73,0.47
								l2.06,1.17l5.08-1.38c0.29-0.08,0.6,0.11,0.68,0.41c0.08,0.29-0.09,0.6-0.39,0.68l-4.02,1.09l1.83,1.07l3.06-0.82
								c0.29-0.08,0.6,0.09,0.68,0.39c0.08,0.29-0.11,0.6-0.41,0.68l-1.98,0.54l1.17,0.68c0.27,0.14,0.35,0.49,0.2,0.76
								C68.21,121.73,67.86,121.83,67.59,121.67"/>
						</g>
						<g>
							<defs>
								<rect id="SVGID_00000027600396220759344990000018150477581806757777_" x="37.82" y="95.95" width="31.62" height="34.03"/>
							</defs>
							<clipPath id="SVGID_00000003790203484116775670000002770986646071098807_">
								<use xlink:href="#SVGID_00000027600396220759344990000018150477581806757777_"  style="overflow:visible;"/>
							</clipPath>
							
								<path style="clip-path:url(#SVGID_00000003790203484116775670000002770986646071098807_);fill-rule:evenodd;clip-rule:evenodd;fill:#9DD7D6;" d="
								M68.15,105.22l-1.17,0.68l1.98,0.53c0.29,0.08,0.48,0.39,0.41,0.68c-0.08,0.29-0.39,0.48-0.68,0.41l-3.06-0.82l-1.83,1.05
								l4.02,1.09c0.29,0.08,0.47,0.39,0.39,0.68c-0.08,0.29-0.39,0.48-0.68,0.39l-5.08-1.38l-2.06,1.19l1.73,0.47
								c0.29,0.08,0.47,0.39,0.39,0.68c-0.08,0.29-0.39,0.47-0.68,0.39l-2.8-0.74l-1.42,0.8c-0.27,0.16-0.6,0.06-0.76-0.2
								c-0.16-0.26-0.06-0.6,0.2-0.76l1.42-0.82l0.74-2.8c0.08-0.29,0.39-0.47,0.68-0.39c0.29,0.08,0.48,0.39,0.41,0.68l-0.47,1.71
								l2.06-1.17l1.34-5.1c0.08-0.29,0.39-0.48,0.68-0.41c0.29,0.08,0.48,0.39,0.41,0.68l-1.07,4.03l1.83-1.05l0.82-3.06
								c0.08-0.29,0.39-0.48,0.68-0.39c0.29,0.08,0.48,0.37,0.41,0.68l-0.54,1.98l1.17-0.68c0.27-0.16,0.62-0.06,0.76,0.2
								C68.51,104.72,68.41,105.07,68.15,105.22"/>
						</g>
					</g>
				</g>
			</g>
		</g>
		<text transform="matrix(1 0 0 1 44.5161 155.9466)" class="st12 st13 st14"> </text>
		<g>
			<path class="st3" d="M77.22,118.48v37.47h-9.75v-15.74h-2.91v15.74h-9.75v-37.47h9.75v13.4h2.91v-13.4
				C67.47,118.48,77.22,118.48,77.22,118.48z"/>
			<path class="st3" d="M103.39,140.41c0,3.77-0.09,6.43-0.27,8c-0.18,1.57-0.73,3-1.66,4.29c-0.93,1.29-2.2,2.29-3.78,2.98
				c-1.59,0.7-3.44,1.04-5.56,1.04c-2.01,0-3.81-0.33-5.4-0.98c-1.59-0.65-2.88-1.64-3.85-2.95c-0.97-1.31-1.55-2.74-1.73-4.28
				c-0.18-1.54-0.28-4.24-0.28-8.1V134c0-3.77,0.09-6.43,0.27-8c0.18-1.57,0.73-3,1.66-4.29c0.93-1.29,2.2-2.29,3.78-2.98
				c1.59-0.7,3.44-1.04,5.56-1.04c2.01,0,3.81,0.33,5.4,0.98c1.59,0.65,2.88,1.64,3.85,2.95c0.97,1.31,1.55,2.74,1.73,4.28
				c0.18,1.54,0.28,4.24,0.28,8.1V140.41z M93.65,128.11c0-1.74-0.09-2.86-0.29-3.34c-0.19-0.48-0.59-0.73-1.19-0.73
				c-0.51,0-0.9,0.2-1.17,0.59c-0.27,0.4-0.41,1.55-0.41,3.48v17.49c0,2.17,0.09,3.52,0.27,4.02c0.18,0.51,0.59,0.77,1.24,0.77
				c0.66,0,1.09-0.29,1.28-0.88c0.18-0.59,0.28-1.98,0.28-4.19C93.65,145.32,93.65,128.11,93.65,128.11z"/>
			<path class="st3" d="M116.76,118.48v29.97h5.92v7.5h-15.67v-37.47C107.02,118.48,116.76,118.48,116.76,118.48z"/>
			<path class="st3" d="M134.79,118.48v37.47h-9.75v-37.47C125.05,118.48,134.79,118.48,134.79,118.48z"/>
			<path class="st3" d="M138.7,118.48h7.29c4.71,0,7.88,0.22,9.55,0.65c1.65,0.43,2.92,1.15,3.78,2.13c0.86,0.99,1.4,2.09,1.62,3.3
				c0.22,1.22,0.33,3.59,0.33,7.14v13.12c0,3.36-0.16,5.61-0.47,6.75s-0.87,2.03-1.65,2.66c-0.78,0.64-1.76,1.09-2.91,1.34
				c-1.15,0.26-2.9,0.38-5.23,0.38h-12.29L138.7,118.48L138.7,118.48z M148.45,124.89v24.65c1.4,0,2.27-0.28,2.59-0.84
				c0.33-0.56,0.48-2.09,0.48-4.59v-14.55c0-1.7-0.05-2.78-0.16-3.27c-0.11-0.47-0.35-0.83-0.74-1.05
				C150.23,125,149.51,124.89,148.45,124.89z"/>
			<path class="st3" d="M181.75,118.48l5.58,37.47h-9.95l-0.53-6.73h-3.48l-0.59,6.73H162.7l4.97-37.47
				C167.68,118.48,181.75,118.48,181.75,118.48z M176.58,142.57c-0.49-4.24-0.99-9.49-1.48-15.74c-0.99,7.18-1.62,12.42-1.87,15.74
				H176.58z"/>
			<path class="st3" d="M206.88,118.48l-7.1,23.9v13.56h-9.02v-13.56l-6.85-23.9h8.95c1.4,7.32,2.19,12.24,2.37,14.76
				c0.54-4,1.45-8.92,2.71-14.76H206.88z"/>
		</g>
		<path class="st5" d="M85.92,121.23c0-2.84-0.28-6.02-0.85-9.1c-1.09,0.19-2.23,0.28-3.32,0.38c-1.47,3.84-2.75,7.35-3.7,10.05
			c-0.38,0.15-0.76,0.19-1.19,0.19c-1.14,0-1.99-0.38-1.99-1.38c0-1.19,0.9-4.64,2.33-9.01c-5.36-0.76-7.92-3.98-7.92-7.58
			c0-3.79,2.42-7.2,7.39-7.2c1.99,0,3.65,0.81,5.08,2.18c0.66-1.66,1.28-3.32,1.95-4.93c2.71-6.78,5.45-13.27,6.69-15.74
			C85.83,83.21,78.91,89.8,74.03,89.8c-3.37,0-4.7-2.75-4.7-5.02c0-1.57,0.66-2.9,1.76-2.9c0.72,1.76,1.57,2.94,3.94,2.94
			c5.55,0,14.5-7.16,16.64-8.39c1.47,0.19,3.18,1.42,3.18,2.52c0,0.34-0.53,1.33-0.9,2.33c-1.9,4.89-5.59,14.18-9.1,23.22
			c0.76,1.76,1.38,3.7,1.8,5.74c1-0.19,1.99-0.43,2.99-0.72c0.09-0.28,0.19-0.57,0.28-0.85c2.75-8.2,6.97-19.01,10.29-27.3
			c1.66-4.08,3.84-6.31,7.39-6.31c2.37,0,3.46,0.95,3.46,1.8c0,0.24-0.09,0.47-0.28,0.66c-0.57-0.28-1.42-0.47-2.09-0.47
			c-1.61,0-2.61,1.52-3.32,3.22c-3.03,7.16-6.88,17.59-10.24,26.88c1.38-0.85,2.61-1.85,3.46-3.03c0.66,0.15,0.85,0.53,0.85,0.9
			c0,1.52-2.09,3.18-5.17,4.55c-1.85,5.12-3.51,9.76-4.74,13.08c-0.19,0.05-0.66,0.09-1.09,0.09
			C87.34,122.75,85.92,122.51,85.92,121.23z M77.77,110.56c0.76-2.23,1.61-4.6,2.52-6.97c0.19-0.57,0.43-1.09,0.62-1.66
			c-1.23-1.47-2.8-2.42-4.64-2.52c-1.52,1.47-2.28,3.51-2.28,5.4C73.98,107.39,75.26,109.76,77.77,110.56z M84.74,110.56
			c-0.28-1.19-0.57-2.28-0.95-3.32c-0.47,1.19-0.95,2.37-1.38,3.56C83.17,110.75,83.98,110.66,84.74,110.56z M89.01,111.32
			c-0.66,0.19-1.38,0.34-2.09,0.47c0.28,1.61,0.47,3.22,0.53,4.79C87.87,115.02,88.39,113.27,89.01,111.32z M106.26,115.11h-0.05
			c-3.7,0-6.69-2.18-6.69-5.45c0-4.79,2.71-12.66,6.4-16.83c1.23-1.42,2.8-2.42,4.98-2.42c2.42,0,5.08,1.19,5.08,4.64
			c0,3.98-4.83,13.61-10.67,13.61c-0.43,0-0.85-0.05-1.33-0.19c-0.05,0.53-0.09,1-0.09,1.42c0,1.52,0.57,2.52,1.85,2.99
			c5.88-0.81,11.38-10.43,14.37-17.68c0.34-0.05,0.38,0.05,0.38,0.28C120.48,97.86,112.7,115.11,106.26,115.11z M104.27,107.15
			c4.27-0.72,8.44-10.38,8.44-13.84c0-0.53-0.09-0.9-0.34-1.09C110.15,92.36,105.6,101.33,104.27,107.15z M122.94,112.27
			c0-1.19,1.09-3.7,1.99-6.45c-2.61,5.17-4.74,9.29-7.01,9.29c-1.66,0-3.79-1.61-3.79-3.79c0-2.71,1.04-6.64,2.46-10.19
			c2.18-5.55,4.83-10.67,8.06-10.67c1.66,0,3.65,1.47,3.89,4.13c0.53-1.28,1-2.56,1.42-3.65c1.95-0.04,3.46,0.09,3.46,1.85
			c0,1.19-1.38,5.21-2.94,9.34c-1.71,4.46-3.79,8.91-4.32,11.05c3.09-1.23,8.49-10.76,11.47-17.97c0.34-0.05,0.38,0.05,0.38,0.28
			c0,2.37-7.68,19.62-12.28,19.62C124.31,115.11,122.94,113.55,122.94,112.27z M124.88,102.89c1.14-2.46,2.56-5.17,2.56-6.92
			c0.05-1.61-0.72-2.56-1.52-2.56c-0.95,0-2.14,1.9-5.36,9.86c-1.71,4.17-2.65,8.39-2.42,9.67
			C119.86,112.13,122.47,107.81,124.88,102.89z M132.42,111.28c0-8.72,10.9-36.12,17.73-36.12c1.14,0,2.23,1.23,2.23,2.37
			c0,6.26-7.64,23.32-13.89,25.03c-1.09,3.46-1.8,6.35-1.8,8.34c0,0.9,0.19,1.61,0.53,2.09c3.75-1.85,8.96-10.71,11.85-17.78
			c0.34-0.05,0.38,0.05,0.38,0.28c0,2.37-7.68,19.62-13.18,19.62C134.36,115.11,132.42,113.41,132.42,111.28z M139.06,100.76
			c4.03-2.52,12.32-22.84,11.75-23.98c-1.99,0.76-6.92,10.33-10.19,19.53C140.05,97.81,139.53,99.33,139.06,100.76z M143.61,111.37
			c0-2.65,3.41-11.75,6.26-18.67c-0.95-0.05-1.8-0.15-2.52-0.24c-0.05-0.19-0.05-0.24-0.05-0.38c0-0.47,0.19-0.9,0.85-0.95
			c0.76-0.04,1.57-0.04,2.37-0.04c1.14-2.71,2.09-4.93,2.61-5.97c2.65-0.09,3.56,0.76,3.56,1.85c0,0.76-0.76,2.52-1.52,4.13
			c1.14,0,2.23,0.04,3.27,0.04c0.15,0.24,0.19,0.43,0.19,0.57c0,0.76-1.33,1.04-4.17,1.14c-1.61,3.98-3.46,8.82-5.74,15.07
			c-0.47,1.38-0.72,2.42-0.72,3.18c-0.04,0.85,0.19,1.38,0.57,1.76c3.65-2.18,7.87-10.81,10.71-17.63c0.34-0.05,0.38,0.05,0.38,0.28
			c0,2.33-7.2,19.62-12.09,19.62C145.5,115.11,143.61,113.46,143.61,111.37z M162.47,111.28c0-1.66,1.52-5.59,3.6-9.63
			c2.14-4.08,4.36-7.87,4.17-9.29c-2.42,0.09-11.38,16.68-13.93,22.56c-1.71-0.09-3.32-0.24-3.32-1.76c0-1.28,1.23-5.21,2.9-9.57
			c1.09-2.9,2.28-5.88,3.41-8.77c3.03-7.58,6.12-14.93,7.64-18.11c-1,0.24-1.8,0.34-2.46,0.34c-1.33,0-1.71-0.34-1.76-0.9
			c0-0.28,0.09-0.57,0.24-0.9c2.18,0.09,3.6-0.28,4.98-0.28c1.66,0,2.99,1.66,2.99,2.9c0,1-1.66,4.22-2.9,7.11
			c-2.28,5.36-4.93,11.81-7.26,18.2c3.56-6.83,6.83-12.61,9.76-12.61c1.66,0,3.98,0.81,3.98,2.99c0,1.61-1.61,5.27-3.79,9.57
			c-1.9,3.84-4.13,8.25-3.94,9.91c3.94-1.9,9.06-10.95,11.9-17.82c0.34-0.05,0.38,0.05,0.38,0.28c0,2.37-7.73,19.62-13.23,19.62
			C164.18,115.11,162.47,113.41,162.47,111.28z M167.25,124.64c0-2.9,1.9-5.88,8.34-7.2c1.14-0.28,2.71-0.57,4.36-1.04
			c1.38-3.79,2.75-7.73,3.84-10.57c-2.28,5.02-4.7,8.77-7.2,8.77c-1.52,0-3.84-0.85-3.84-3.22c0-4.79,6.54-15.74,6.64-19.1
			c-0.76,0.19-1.33,0.24-1.8,0.28c-0.95,0-1.28-0.34-1.28-0.85c0-0.19,0.05-0.38,0.15-0.62c1.42,0.04,2.8-0.24,4.03-0.24
			c1.04,0,2.52,0.95,2.52,3.6c0,3.22-6.54,15.31-6.16,17.82c2.9-0.15,8.68-11.75,11.81-21.23c0.43-0.05,0.85-0.05,1.28-0.05
			c1.42,0,2.46,0.28,2.46,1.14c0,1.28-1.76,5.5-3.22,10c-0.62,1.9-2.23,6.64-4.32,12.32c3.03-2.23,6.35-6.64,7.82-10.29
			c0.62-0.05,1,0.04,1,0.57c0,1.76-3.37,9.06-9.57,11.66c-0.72,1.9-1.47,3.89-2.28,5.88c-1.95,4.83-5.36,8.06-7.96,8.06
			C169.58,130.33,167.25,127.58,167.25,124.64z M179.29,118.2c-0.66,0.28-1.38,0.53-1.99,0.76c-3.46,1.23-5.74,2.42-5.74,5.17
			c0,1.95,1.28,3.75,3.41,3.79C175.97,127.01,177.59,122.89,179.29,118.2z"/>
	</g>
</g>
</svg>
