<?xml version="1.0" encoding="utf-8"?>
<!-- Generator: Adobe Illustrator 27.9.0, SVG Export Plug-In . SVG Version: 6.00 Build 0)  -->
<svg version="1.1" xmlns="http://www.w3.org/2000/svg" xmlns:xlink="http://www.w3.org/1999/xlink" x="0px" y="0px"
	 viewBox="0 0 249 249" style="enable-background:new 0 0 249 249;" xml:space="preserve">
<style type="text/css">
	.st0{display:none;}
	.st1{display:inline;}
	.st2{fill:#231F20;}
	.st3{fill:#FFDD15;}
	.st4{fill:url(#SVGID_1_);}
	.st5{fill:url(#SVGID_00000057869977588373262620000012680526878848892077_);}
	.st6{fill:url(#SVGID_00000046340427916705401680000012998185646742691766_);}
	.st7{fill:url(#SVGID_00000005228827304401744530000006675213638275945618_);}
	.st8{fill:#EC268F;}
</style>
<g id="Layer_1" class="st0">
	<g class="st1">
		<path class="st2" d="M57.13,80.2h12.51c3.95,0,6.95,0.31,8.98,0.92c2.04,0.62,3.68,1.86,4.93,3.74s1.88,4.9,1.88,9.06
			c0,2.82-0.44,4.78-1.33,5.89c-0.88,1.11-2.63,1.96-5.23,2.56c2.9,0.66,4.87,1.74,5.9,3.26c1.03,1.52,1.55,3.85,1.55,6.99v4.47
			c0,3.26-0.37,5.67-1.12,7.24c-0.74,1.57-1.93,2.64-3.56,3.22s-4.96,0.86-10.01,0.86h-14.5V80.2z M69.67,88.45v10.72
			c0.54-0.02,0.95-0.03,1.25-0.03c1.23,0,2.02-0.3,2.35-0.91c0.34-0.61,0.51-2.34,0.51-5.2c0-1.51-0.14-2.57-0.42-3.17
			c-0.28-0.61-0.64-0.99-1.09-1.15C71.83,88.56,70.96,88.47,69.67,88.45z M69.67,106.68v13.49c1.77-0.06,2.89-0.34,3.38-0.83
			c0.49-0.5,0.73-1.72,0.73-3.66v-4.5c0-2.07-0.22-3.32-0.66-3.75C72.69,106.99,71.54,106.74,69.67,106.68z"/>
		<path class="st2" d="M112.5,80.2l7.17,48.23h-12.82l-0.67-8.67h-4.49l-0.75,8.67H87.97l6.4-48.23H112.5z M105.85,111.21
			c-0.63-5.46-1.27-12.21-1.91-20.26c-1.28,9.24-2.08,15.99-2.41,20.26H105.85z"/>
		<path class="st2" d="M151.08,101.2h-12.54v-8.38c0-2.44-0.13-3.96-0.4-4.56c-0.27-0.6-0.86-0.91-1.77-0.91
			c-1.03,0-1.69,0.37-1.97,1.1c-0.28,0.73-0.42,2.32-0.42,4.77v22.4c0,2.34,0.14,3.87,0.42,4.59c0.28,0.71,0.9,1.07,1.88,1.07
			c0.93,0,1.54-0.36,1.83-1.07c0.29-0.72,0.43-2.4,0.43-5.05v-6.06h12.54v1.88c0,4.99-0.35,8.53-1.06,10.62
			c-0.7,2.09-2.26,3.92-4.68,5.49c-2.41,1.57-5.39,2.36-8.92,2.36c-3.67,0-6.7-0.67-9.09-2c-2.38-1.33-3.96-3.17-4.74-5.53
			c-0.77-2.35-1.16-5.89-1.16-10.62V97.21c0-3.47,0.12-6.08,0.36-7.82s0.95-3.41,2.13-5.02c1.18-1.61,2.82-2.87,4.91-3.8
			c2.1-0.92,4.5-1.39,7.22-1.39c3.69,0,6.74,0.71,9.15,2.14c2.4,1.43,3.98,3.21,4.74,5.34s1.13,5.45,1.13,9.95L151.08,101.2
			L151.08,101.2z"/>
		<path class="st2" d="M185.47,80.2l-7.19,21.78l7.88,26.45H173.2l-5.08-20.67v20.67h-12.54V80.2h12.54v18.74l5.59-18.74H185.47z"/>
	</g>
	<g class="st1">
		<path class="st2" d="M72.64,132.57v6.47h-4.99v25.85h-8.4v-25.85h-4.97v-6.47H72.64z"/>
		<path class="st2" d="M93.76,151.49c0,3.25-0.08,5.55-0.23,6.9c-0.15,1.35-0.63,2.59-1.44,3.7c-0.81,1.12-1.89,1.98-3.26,2.58
			s-2.97,0.9-4.79,0.9c-1.73,0-3.28-0.28-4.66-0.85c-1.38-0.57-2.49-1.41-3.32-2.55c-0.84-1.13-1.34-2.36-1.5-3.69
			s-0.24-3.66-0.24-6.99v-5.53c0-3.25,0.08-5.55,0.23-6.9c0.15-1.35,0.63-2.59,1.44-3.7c0.81-1.12,1.89-1.98,3.26-2.58
			s2.97-0.9,4.79-0.9c1.73,0,3.28,0.28,4.66,0.85s2.49,1.41,3.32,2.55c0.84,1.13,1.34,2.36,1.5,3.69s0.24,3.66,0.24,6.99
			C93.76,145.96,93.76,151.49,93.76,151.49z M85.36,140.87c0-1.5-0.08-2.47-0.25-2.88c-0.17-0.42-0.51-0.63-1.03-0.63
			c-0.44,0-0.78,0.17-1.01,0.51s-0.35,1.34-0.35,3v15.09c0,1.88,0.08,3.03,0.23,3.47s0.51,0.66,1.07,0.66c0.57,0,0.94-0.25,1.1-0.76
			c0.16-0.51,0.24-1.71,0.24-3.61V140.87z"/>
		<path class="st2" d="M123.72,146.64h-8.4v-5.62c0-1.63-0.09-2.65-0.27-3.06c-0.18-0.4-0.58-0.61-1.19-0.61
			c-0.69,0-1.13,0.25-1.32,0.74s-0.28,1.56-0.28,3.19v15.01c0,1.57,0.09,2.6,0.28,3.07c0.19,0.48,0.61,0.72,1.26,0.72
			c0.63,0,1.03-0.24,1.23-0.72c0.19-0.48,0.29-1.61,0.29-3.38v-4.06h8.4v1.26c0,3.35-0.24,5.72-0.71,7.12s-1.52,2.63-3.13,3.68
			c-1.62,1.05-3.61,1.58-5.98,1.58c-2.46,0-4.49-0.45-6.09-1.34s-2.65-2.13-3.17-3.7c-0.52-1.58-0.78-3.95-0.78-7.12v-9.44
			c0-2.33,0.08-4.08,0.24-5.24c0.16-1.16,0.64-2.29,1.43-3.36c0.79-1.08,1.89-1.93,3.29-2.55c1.4-0.62,3.02-0.93,4.84-0.93
			c2.48,0,4.52,0.48,6.13,1.44s2.67,2.15,3.17,3.58c0.51,1.43,0.76,3.65,0.76,6.67L123.72,146.64L123.72,146.64z"/>
		<path class="st2" d="M145.94,151.49c0,3.25-0.08,5.55-0.23,6.9c-0.15,1.35-0.63,2.59-1.44,3.7c-0.81,1.12-1.89,1.98-3.26,2.58
			s-2.97,0.9-4.79,0.9c-1.73,0-3.28-0.28-4.66-0.85s-2.49-1.41-3.32-2.55c-0.84-1.13-1.34-2.36-1.5-3.69s-0.24-3.66-0.24-6.99v-5.53
			c0-3.25,0.08-5.55,0.23-6.9c0.15-1.35,0.63-2.59,1.44-3.7c0.81-1.12,1.89-1.98,3.26-2.58s2.97-0.9,4.79-0.9
			c1.73,0,3.28,0.28,4.66,0.85s2.49,1.41,3.32,2.55c0.84,1.13,1.34,2.36,1.5,3.69s0.24,3.66,0.24,6.99L145.94,151.49L145.94,151.49z
			 M137.54,140.87c0-1.5-0.08-2.47-0.25-2.88c-0.17-0.42-0.51-0.63-1.03-0.63c-0.44,0-0.78,0.17-1.01,0.51s-0.35,1.34-0.35,3v15.09
			c0,1.88,0.08,3.03,0.23,3.47s0.51,0.66,1.07,0.66c0.57,0,0.94-0.25,1.1-0.76s0.24-1.71,0.24-3.61L137.54,140.87L137.54,140.87z"/>
		<path class="st2" d="M149.08,132.57h5.95c3.97,0,6.65,0.15,8.05,0.46c1.4,0.31,2.55,1.09,3.43,2.35c0.88,1.26,1.33,3.26,1.33,6.02
			c0,2.52-0.31,4.21-0.94,5.07c-0.63,0.87-1.86,1.38-3.69,1.56c1.66,0.41,2.78,0.97,3.35,1.66s0.93,1.33,1.07,1.91
			c0.14,0.58,0.21,2.17,0.21,4.78v8.52h-7.81v-10.74c0-1.73-0.14-2.8-0.41-3.21s-0.99-0.62-2.15-0.62v14.57h-8.4L149.08,132.57
			L149.08,132.57z M157.48,138.1v7.19c0.94,0,1.61-0.13,1.99-0.39s0.57-1.1,0.57-2.53v-1.78c0-1.02-0.18-1.7-0.55-2.02
			S158.45,138.1,157.48,138.1z"/>
		<path class="st2" d="M171.09,132.57h14.01v6.47h-5.61v6.13h5.25v6.15h-5.25v7.11h6.17v6.47h-14.57V132.57z"/>
	</g>
</g>
<g id="Layer_2">
	<g>
		<circle class="st3" cx="169.25" cy="101.13" r="20.92"/>
		<path class="st3" d="M171.35,77.11l3.81-5.21c0,0,1.66-2.44,2.06,0.49c0.33,2.38,0.79,6.31,0.79,6.31S174.74,77,171.35,77.11z"/>
		<path class="st3" d="M183.15,81.55l5.89-2.65c0,0,2.64-1.3,1.55,1.45c-0.89,2.23-2.43,5.87-2.43,5.87S186.15,83.14,183.15,81.55z"
			/>
		<path class="st3" d="M191.2,91l6.41,0.75c0,0,2.93,0.24,0.58,2.04c-1.91,1.45-5.11,3.79-5.11,3.79S192.97,93.91,191.2,91z"/>
		<path class="st3" d="M192.77,103.23l5.52,3.35c0,0,2.57,1.44-0.31,2.09c-2.34,0.53-6.22,1.32-6.22,1.32
			S193.17,106.61,192.77,103.23z"/>
		<path class="st3" d="M189.07,115.17l2.48,5.96c0,0,1.22,2.68-1.49,1.5c-2.2-0.95-5.8-2.6-5.8-2.6S187.4,118.12,189.07,115.17z"/>
		<path class="st3" d="M179.15,123.12l-0.34,6.45c0,0-0.06,2.94-1.99,0.71c-1.57-1.81-4.11-4.85-4.11-4.85
			S176.36,125.06,179.15,123.12z"/>
		<path class="st3" d="M155.35,120.61l-5.72,2.99c0,0-2.56,1.45-1.63-1.35c0.76-2.28,2.08-6.01,2.08-6.01
			S152.26,119.21,155.35,120.61z"/>
		<path class="st3" d="M166.91,124.42l-3.81,5.21c0,0-1.66,2.44-2.06-0.49c-0.33-2.38-0.79-6.31-0.79-6.31
			S163.52,124.53,166.91,124.42z"/>
		<path class="st3" d="M147.25,110.81l-6.45,0.04c0,0-2.94,0.12-0.83-1.95c1.71-1.68,4.6-4.39,4.6-4.39S145.14,108.15,147.25,110.81
			z"/>
		<path class="st3" d="M144.65,98.78l-5.21-3.81c0,0-2.44-1.66,0.49-2.06c2.38-0.33,6.31-0.79,6.31-0.79S144.54,95.38,144.65,98.78z
			"/>
		<path class="st3" d="M149.11,87.29l-2.44-5.98c0,0-1.2-2.69,1.5-1.5c2.2,0.97,5.78,2.64,5.78,2.64S150.8,84.34,149.11,87.29z"/>
		<path class="st3" d="M158.76,78.81l1.03-6.37c0,0,0.37-2.92,2.06-0.5c1.37,1.97,3.57,5.26,3.57,5.26S161.73,77.18,158.76,78.81z"
			/>
	</g>
	<g>
		<linearGradient id="SVGID_1_" gradientUnits="userSpaceOnUse" x1="78.0632" y1="94.8123" x2="78.0632" y2="165.1144">
			<stop  offset="0" style="stop-color:#EC268F"/>
			<stop  offset="0.2724" style="stop-color:#E7228C"/>
			<stop  offset="0.6142" style="stop-color:#D71582"/>
			<stop  offset="0.9918" style="stop-color:#BE0172"/>
			<stop  offset="1" style="stop-color:#BD0072"/>
		</linearGradient>
		<path class="st4" d="M60.29,162.29c-1.89-1.89-2.83-4.4-2.83-7.53c0-2.64,0.81-4.95,2.42-6.91c1.62-1.96,3.79-2.94,6.54-2.94
			c2.11,0,3.83,0.31,5.18,0.92c1.35,0.61,2.02,1.95,2.02,4c0,0.88-0.15,1.86-0.44,2.94c-0.88-0.73-1.64-1.24-2.28-1.51
			c-0.64-0.27-1.35-0.4-2.13-0.4c-1.62,0-2.88,0.54-3.78,1.62c-0.91,1.08-1.36,2.35-1.36,3.82c0,1.71,0.51,3,1.54,3.86
			c1.03,0.86,2.18,1.29,3.45,1.29c1.18,0,2.17-0.23,2.98-0.7c0.81-0.47,1.53-1.35,2.17-2.64c0.64-1.3,1.25-3.2,1.84-5.69
			l11.53-52.45c-3.28,1.32-5.83,3.36-7.64,6.1c-1.81,2.74-2.72,6.07-2.72,9.99c0,1.81,0.17,3.07,0.51,3.78
			c0.34,0.71,0.51,1.11,0.51,1.21c-2.64,0-4.62-0.55-5.91-1.65c-1.3-1.1-1.95-2.93-1.95-5.47c0-3.13,1.29-6.18,3.86-9.15
			c2.57-2.96,5.86-5.36,9.88-7.2c4.02-1.84,8.03-2.75,12.05-2.75h2.94l-11.02,52.16c-1.27,6.02-3.38,10.55-6.32,13.59
			c-2.94,3.04-7.27,4.55-13,4.55C64.85,165.11,62.17,164.17,60.29,162.29z"/>
		
			<linearGradient id="SVGID_00000106123230694149667240000005409134834241037443_" gradientUnits="userSpaceOnUse" x1="115.3811" y1="113.1774" x2="115.3811" y2="150.3487">
			<stop  offset="0" style="stop-color:#EC268F"/>
			<stop  offset="0.2724" style="stop-color:#E7228C"/>
			<stop  offset="0.6142" style="stop-color:#D71582"/>
			<stop  offset="0.9918" style="stop-color:#BE0172"/>
			<stop  offset="1" style="stop-color:#BD0072"/>
		</linearGradient>
		<path style="fill:url(#SVGID_00000106123230694149667240000005409134834241037443_);" d="M97.16,148.14
			c-1.45-1.47-2.17-3.67-2.17-6.61c0-1.22,0.2-2.82,0.59-4.77l5-23.58h10.58l-5.29,24.98c-0.15,0.73-0.22,1.42-0.22,2.06
			c0,2.01,0.73,3.01,2.2,3.01c1.37,0,2.55-0.57,3.53-1.73c0.98-1.15,1.76-2.73,2.35-4.74l5-23.58h10.58l-5.29,24.98
			c-0.2,0.73-0.29,1.52-0.29,2.35c0,0.98,0.23,1.68,0.7,2.09c0.46,0.42,1.24,0.62,2.31,0.62c1.37,0,2.56-0.59,3.56-1.76
			c1-1.18,1.8-2.74,2.39-4.7h3.09c-1.81,5.29-4.05,8.88-6.72,10.76c-2.67,1.89-5.35,2.83-8.04,2.83c-2.11,0-3.78-0.59-5.03-1.76
			s-2-2.91-2.24-5.22c-1.67,2.69-3.42,4.53-5.25,5.51c-1.84,0.98-3.71,1.47-5.62,1.47C100.51,150.35,98.61,149.61,97.16,148.14z"/>
		
			<linearGradient id="SVGID_00000121247839103865031380000009751081975649551270_" gradientUnits="userSpaceOnUse" x1="143.7362" y1="98.4852" x2="143.7362" y2="150.3487">
			<stop  offset="0" style="stop-color:#EC268F"/>
			<stop  offset="0.2724" style="stop-color:#E7228C"/>
			<stop  offset="0.6142" style="stop-color:#D71582"/>
			<stop  offset="0.9918" style="stop-color:#BE0172"/>
			<stop  offset="1" style="stop-color:#BD0072"/>
		</linearGradient>
		<path style="fill:url(#SVGID_00000121247839103865031380000009751081975649551270_);" d="M134.26,148.14
			c-1.45-1.47-2.17-3.67-2.17-6.61c0-1.22,0.2-2.82,0.59-4.77l7.86-36.8l10.87-1.47l-8.45,39.67c-0.2,0.73-0.29,1.52-0.29,2.35
			c0,0.98,0.23,1.68,0.7,2.09c0.47,0.42,1.24,0.62,2.31,0.62c1.42,0,2.74-0.6,3.97-1.8c1.22-1.2,2.11-2.75,2.64-4.66h3.09
			c-1.81,5.29-4.14,8.88-6.98,10.76c-2.84,1.89-5.66,2.83-8.45,2.83C137.6,150.35,135.7,149.61,134.26,148.14z"/>
		
			<linearGradient id="SVGID_00000118354640293155063760000011664525330607506304_" gradientUnits="userSpaceOnUse" x1="161.0728" y1="97.5303" x2="161.0728" y2="150.3487">
			<stop  offset="0" style="stop-color:#EC268F"/>
			<stop  offset="0.2724" style="stop-color:#E7228C"/>
			<stop  offset="0.6142" style="stop-color:#D71582"/>
			<stop  offset="0.9918" style="stop-color:#BE0172"/>
			<stop  offset="1" style="stop-color:#BD0072"/>
		</linearGradient>
		<path style="fill:url(#SVGID_00000118354640293155063760000011664525330607506304_);" d="M153.87,148.14
			c-1.45-1.47-2.17-3.67-2.17-6.61c0-1.22,0.2-2.82,0.59-4.77l5-23.58h10.58l-5.29,24.98c-0.2,0.73-0.29,1.52-0.29,2.35
			c0,0.98,0.23,1.68,0.7,2.09c0.47,0.42,1.24,0.62,2.31,0.62c0.88,0,1.66-0.15,2.35-0.44c-0.2,2.45-1.07,4.32-2.61,5.62
			c-1.54,1.3-3.37,1.95-5.47,1.95C157.22,150.35,155.32,149.61,153.87,148.14z M160.45,107.52c-1.13-1.13-1.69-2.5-1.69-4.11
			c0-1.62,0.56-3,1.69-4.15c1.13-1.15,2.5-1.73,4.11-1.73c1.62,0,3,0.58,4.15,1.73c1.15,1.15,1.73,2.53,1.73,4.15
			c0,1.62-0.58,2.99-1.73,4.11c-1.15,1.13-2.53,1.69-4.15,1.69C162.95,109.21,161.57,108.65,160.45,107.52z"/>
	</g>
	<g>
		<path class="st8" d="M105.33,87.54c-1.45,0.61-2.57,1.51-3.35,2.72c-0.79,1.21-1.18,2.67-1.18,4.38c0,0.8,0.08,1.36,0.23,1.67
			c0.15,0.31,0.23,0.49,0.23,0.53c-1.17,0-2.04-0.24-2.61-0.73c-0.57-0.49-0.86-1.29-0.86-2.41c0-1.38,0.57-2.73,1.7-4.04
			c1.13-1.31,2.59-2.37,4.36-3.18c1.77-0.81,3.54-1.22,5.32-1.22c0.3,0,0.73,0.02,1.3,0.06L108.38,95h4.76l2.07-9.66h4.67
			l-5.15,24.24h-4.67l2.59-12.19h-4.76l-2.59,12.19h-4.67L105.33,87.54z"/>
		<path class="st8" d="M119.85,108.53c-0.89-0.83-1.33-2.13-1.33-3.91c0-1.49,0.29-3.13,0.87-4.93c0.58-1.79,1.53-3.34,2.85-4.65
			c1.32-1.31,2.99-1.96,5.02-1.96c2.38,0,3.56,1.04,3.56,3.11c0,1.21-0.35,2.32-1.04,3.34c-0.69,1.02-1.61,1.83-2.75,2.45
			c-1.15,0.62-2.37,0.97-3.66,1.05c-0.04,0.65-0.06,1.08-0.06,1.3c0,1.06,0.18,1.78,0.55,2.16c0.37,0.38,0.96,0.57,1.78,0.57
			c1.17,0,2.17-0.27,3-0.81c0.83-0.54,1.74-1.36,2.74-2.46h1.1c-2.4,4-5.37,6-8.91,6C121.98,109.78,120.73,109.36,119.85,108.53z
			 M125.92,100.64c0.72-0.52,1.31-1.18,1.75-1.98c0.44-0.8,0.66-1.64,0.66-2.53c0-0.89-0.27-1.33-0.81-1.33
			c-0.78,0-1.54,0.68-2.28,2.04c-0.75,1.36-1.28,2.91-1.6,4.63C124.44,101.44,125.2,101.16,125.92,100.64z"/>
		<path class="st8" d="M132.08,108.81c-0.64-0.65-0.96-1.62-0.96-2.92c0-0.54,0.09-1.24,0.26-2.11l2.2-10.4h4.67l-2.33,11.02
			c-0.09,0.32-0.13,0.67-0.13,1.04c0,0.43,0.1,0.74,0.31,0.92c0.21,0.18,0.55,0.28,1.02,0.28c0.39,0,0.73-0.06,1.04-0.19
			c-0.09,1.08-0.47,1.91-1.15,2.48c-0.68,0.57-1.49,0.86-2.41,0.86C133.56,109.78,132.72,109.45,132.08,108.81z M134.98,90.88
			c-0.5-0.5-0.75-1.1-0.75-1.82c0-0.71,0.25-1.32,0.75-1.83c0.5-0.51,1.1-0.76,1.81-0.76c0.71,0,1.32,0.25,1.83,0.76
			c0.51,0.51,0.76,1.12,0.76,1.83c0,0.71-0.25,1.32-0.76,1.82c-0.51,0.5-1.12,0.75-1.83,0.75
			C136.08,91.63,135.48,91.38,134.98,90.88z"/>
	</g>
	<path class="st2" d="M176.96,105.91c0,0-2.41-2.08-2.41-3.29c0-1.21-0.44-5.38-0.44-5.38l0.66-1.97l4.06-6.03
		c0,0,0.6-1.1,1.26-0.44c0.66,0.66,4.22,6.03,5.1,6.58c0.44,0.33,0.44,0.66,0.44,0.66l-0.83,6.8c0,0-1.26,2.63-2.13,3.07
		c-0.88,0.44-1.97-0.66-1.76-1.87c0.27-0.22,1.32-0.11,1.32-0.11s0.22-0.3,0.33-0.74c0.11-0.44,0.58-1.32,0.52-2.08
		c-0.05-0.77-0.11-2.17-0.22-2.83c-0.11-0.66-0.55-2.52-3.51-2.61c0.74-1.56-1.18-1.34-1.18-1.34s-2.19,0.36-0.99,1.87
		c-2.9,2.81-1.07,4.94-1.07,4.94s0.44,0.96,1.89,1.54c0.6,0.38-0.44,3.34-0.44,3.34S177.26,106.29,176.96,105.91z M176.08,116.44
		c0.33,1.1-0.33,3.29-0.33,3.29c-4.39,6.14-0.24,15.84-0.24,15.84s1.78,3.47,1.45,6.11s0.44,5.49,0.44,5.49s1.87,6.14,1.87,7.4
		s-0.33,3.14-0.66,4.67c-0.33,1.54,0.55,2.52,1.97,2.96s1.21-0.99,1.21-1.87c0-0.88-0.22-4.72-0.22-4.72s-0.77-3.18-0.66-5.38
		c0.66-2.74-0.11-3.84-0.11-3.84l-0.44-6.58c0.66-0.11,0.99-0.88,0.99-3.18c0-2.3,2.85-3.18,2.85-3.18l9.44-0.55
		c0,0,5.27-0.11,3.62-3.73c-1.65-3.62-8.67-6.03-9.87-6.25s-1.87-0.77-1.87-0.77s-0.88-2.3-1.87-3.62
		c-0.99-1.32,0.22-2.63,0.44-4.28c0.88-1.65,0.77-4.39,0.77-4.39s2.08-2.96,2.08-4.28c0-1.32,0.88-7.35,0.88-9.22
		c0-1.87-0.55-1.97-0.55-1.97l-5.6-5.38l-0.55-1.32c0,0,0,0-1.97-6.47l-0.55,6.91l-5.43,5.92c0,0-1.15,0.88-1.15,1.76
		s0.55,7.9,0.55,9.33s1.76,4.72,1.76,4.72C174.21,110.95,175.75,115.34,176.08,116.44z M180.28,130.79l0-3.13
		c0,0,4.69,1.67,7.08,1.95c2.39,0.27,3.87,0.52,3.87,0.52l-6.42,1.65c0,0-1.48,0.47-2.41,0S180.6,130.81,180.28,130.79z"/>
</g>
</svg>
