<?xml version="1.0" encoding="utf-8"?>
<!-- Generator: Adobe Illustrator 27.9.0, SVG Export Plug-In . SVG Version: 6.00 Build 0)  -->
<svg version="1.1" xmlns="http://www.w3.org/2000/svg" xmlns:xlink="http://www.w3.org/1999/xlink" x="0px" y="0px"
	 viewBox="0 0 249 249" style="enable-background:new 0 0 249 249;" xml:space="preserve">
<style type="text/css">
	.st0{display:none;}
	.st1{display:inline;}
	.st2{fill:#231F20;}
	.st3{fill:#D0D2D3;}
	.st4{fill:#00C0EA;}
	.st5{fill:url(#SVGID_1_);}
	.st6{fill:url(#SVGID_00000107565409094851132830000014096350326063491773_);}
	.st7{fill:url(#SVGID_00000170997636225196561140000014775653898562170259_);}
	.st8{fill:url(#SVGID_00000150084361198023238020000010768704153302600339_);}
	.st9{fill:url(#SVGID_00000016049457244429279240000014652928297819445381_);}
	.st10{fill:url(#SVGID_00000004509009682969256650000012398566977625434277_);}
	.st11{fill:url(#SVGID_00000010991313614740103650000016075058827219804060_);}
	.st12{fill:#BBBDBF;}
	.st13{fill:url(#SVGID_00000075144778312033920400000008126602465556068767_);}
	.st14{fill:#CDE9F1;}
	.st15{fill:#CAEAF6;}
	.st16{fill:#D8EFF7;}
</style>
<g id="Layer_1" class="st0">
	<g class="st1">
		<path class="st2" d="M57.13,80.2h12.51c3.95,0,6.95,0.31,8.98,0.92c2.04,0.62,3.68,1.86,4.93,3.74s1.88,4.9,1.88,9.06
			c0,2.82-0.44,4.78-1.33,5.89c-0.88,1.11-2.63,1.96-5.23,2.56c2.9,0.66,4.87,1.74,5.9,3.26c1.03,1.52,1.55,3.85,1.55,6.99v4.47
			c0,3.26-0.37,5.67-1.12,7.24c-0.74,1.57-1.93,2.64-3.56,3.22s-4.96,0.86-10.01,0.86h-14.5V80.2z M69.67,88.45v10.72
			c0.54-0.02,0.95-0.03,1.25-0.03c1.23,0,2.02-0.3,2.35-0.91c0.34-0.61,0.51-2.34,0.51-5.2c0-1.51-0.14-2.57-0.42-3.17
			c-0.28-0.61-0.64-0.99-1.09-1.15C71.83,88.56,70.96,88.47,69.67,88.45z M69.67,106.68v13.49c1.77-0.06,2.89-0.34,3.38-0.83
			c0.49-0.5,0.73-1.72,0.73-3.66v-4.5c0-2.07-0.22-3.32-0.66-3.75C72.69,106.99,71.54,106.74,69.67,106.68z"/>
		<path class="st2" d="M112.5,80.2l7.17,48.23h-12.82l-0.67-8.67h-4.49l-0.75,8.67H87.97l6.4-48.23H112.5z M105.85,111.21
			c-0.63-5.46-1.27-12.21-1.91-20.26c-1.28,9.24-2.08,15.99-2.41,20.26H105.85z"/>
		<path class="st2" d="M151.08,101.2h-12.54v-8.38c0-2.44-0.13-3.96-0.4-4.56c-0.27-0.6-0.86-0.91-1.77-0.91
			c-1.03,0-1.69,0.37-1.97,1.1c-0.28,0.73-0.42,2.32-0.42,4.77v22.4c0,2.34,0.14,3.87,0.42,4.59c0.28,0.71,0.9,1.07,1.88,1.07
			c0.93,0,1.54-0.36,1.83-1.07c0.29-0.72,0.43-2.4,0.43-5.05v-6.06h12.54v1.88c0,4.99-0.35,8.53-1.06,10.62
			c-0.7,2.09-2.26,3.92-4.68,5.49c-2.41,1.57-5.39,2.36-8.92,2.36c-3.67,0-6.7-0.67-9.09-2c-2.38-1.33-3.96-3.17-4.74-5.53
			c-0.77-2.35-1.16-5.89-1.16-10.62V97.21c0-3.47,0.12-6.08,0.36-7.82s0.95-3.41,2.13-5.02c1.18-1.61,2.82-2.87,4.91-3.8
			c2.1-0.92,4.5-1.39,7.22-1.39c3.69,0,6.74,0.71,9.15,2.14c2.4,1.43,3.98,3.21,4.74,5.34s1.13,5.45,1.13,9.95L151.08,101.2
			L151.08,101.2z"/>
		<path class="st2" d="M185.47,80.2l-7.19,21.78l7.88,26.45H173.2l-5.08-20.67v20.67h-12.54V80.2h12.54v18.74l5.59-18.74H185.47z"/>
	</g>
	<g class="st1">
		<path class="st2" d="M72.64,132.57v6.47h-4.99v25.85h-8.4v-25.85h-4.97v-6.47H72.64z"/>
		<path class="st2" d="M93.76,151.49c0,3.25-0.08,5.55-0.23,6.9c-0.15,1.35-0.63,2.59-1.44,3.7c-0.81,1.12-1.89,1.98-3.26,2.58
			s-2.97,0.9-4.79,0.9c-1.73,0-3.28-0.28-4.66-0.85c-1.38-0.57-2.49-1.41-3.32-2.55c-0.84-1.13-1.34-2.36-1.5-3.69
			s-0.24-3.66-0.24-6.99v-5.53c0-3.25,0.08-5.55,0.23-6.9c0.15-1.35,0.63-2.59,1.44-3.7c0.81-1.12,1.89-1.98,3.26-2.58
			s2.97-0.9,4.79-0.9c1.73,0,3.28,0.28,4.66,0.85s2.49,1.41,3.32,2.55c0.84,1.13,1.34,2.36,1.5,3.69s0.24,3.66,0.24,6.99
			C93.76,145.96,93.76,151.49,93.76,151.49z M85.36,140.87c0-1.5-0.08-2.47-0.25-2.88c-0.17-0.42-0.51-0.63-1.03-0.63
			c-0.44,0-0.78,0.17-1.01,0.51s-0.35,1.34-0.35,3v15.09c0,1.88,0.08,3.03,0.23,3.47s0.51,0.66,1.07,0.66c0.57,0,0.94-0.25,1.1-0.76
			c0.16-0.51,0.24-1.71,0.24-3.61V140.87z"/>
		<path class="st2" d="M123.72,146.64h-8.4v-5.62c0-1.63-0.09-2.65-0.27-3.06c-0.18-0.4-0.58-0.61-1.19-0.61
			c-0.69,0-1.13,0.25-1.32,0.74s-0.28,1.56-0.28,3.19v15.01c0,1.57,0.09,2.6,0.28,3.07c0.19,0.48,0.61,0.72,1.26,0.72
			c0.63,0,1.03-0.24,1.23-0.72c0.19-0.48,0.29-1.61,0.29-3.38v-4.06h8.4v1.26c0,3.35-0.24,5.72-0.71,7.12s-1.52,2.63-3.13,3.68
			c-1.62,1.05-3.61,1.58-5.98,1.58c-2.46,0-4.49-0.45-6.09-1.34s-2.65-2.13-3.17-3.7c-0.52-1.58-0.78-3.95-0.78-7.12v-9.44
			c0-2.33,0.08-4.08,0.24-5.24c0.16-1.16,0.64-2.29,1.43-3.36c0.79-1.08,1.89-1.93,3.29-2.55c1.4-0.62,3.02-0.93,4.84-0.93
			c2.48,0,4.52,0.48,6.13,1.44s2.67,2.15,3.17,3.58c0.51,1.43,0.76,3.65,0.76,6.67L123.72,146.64L123.72,146.64z"/>
		<path class="st2" d="M145.94,151.49c0,3.25-0.08,5.55-0.23,6.9c-0.15,1.35-0.63,2.59-1.44,3.7c-0.81,1.12-1.89,1.98-3.26,2.58
			s-2.97,0.9-4.79,0.9c-1.73,0-3.28-0.28-4.66-0.85s-2.49-1.41-3.32-2.55c-0.84-1.13-1.34-2.36-1.5-3.69s-0.24-3.66-0.24-6.99v-5.53
			c0-3.25,0.08-5.55,0.23-6.9c0.15-1.35,0.63-2.59,1.44-3.7c0.81-1.12,1.89-1.98,3.26-2.58s2.97-0.9,4.79-0.9
			c1.73,0,3.28,0.28,4.66,0.85s2.49,1.41,3.32,2.55c0.84,1.13,1.34,2.36,1.5,3.69s0.24,3.66,0.24,6.99L145.94,151.49L145.94,151.49z
			 M137.54,140.87c0-1.5-0.08-2.47-0.25-2.88c-0.17-0.42-0.51-0.63-1.03-0.63c-0.44,0-0.78,0.17-1.01,0.51s-0.35,1.34-0.35,3v15.09
			c0,1.88,0.08,3.03,0.23,3.47s0.51,0.66,1.07,0.66c0.57,0,0.94-0.25,1.1-0.76s0.24-1.71,0.24-3.61L137.54,140.87L137.54,140.87z"/>
		<path class="st2" d="M149.08,132.57h5.95c3.97,0,6.65,0.15,8.05,0.46c1.4,0.31,2.55,1.09,3.43,2.35c0.88,1.26,1.33,3.26,1.33,6.02
			c0,2.52-0.31,4.21-0.94,5.07c-0.63,0.87-1.86,1.38-3.69,1.56c1.66,0.41,2.78,0.97,3.35,1.66s0.93,1.33,1.07,1.91
			c0.14,0.58,0.21,2.17,0.21,4.78v8.52h-7.81v-10.74c0-1.73-0.14-2.8-0.41-3.21s-0.99-0.62-2.15-0.62v14.57h-8.4L149.08,132.57
			L149.08,132.57z M157.48,138.1v7.19c0.94,0,1.61-0.13,1.99-0.39s0.57-1.1,0.57-2.53v-1.78c0-1.02-0.18-1.7-0.55-2.02
			S158.45,138.1,157.48,138.1z"/>
		<path class="st2" d="M171.09,132.57h14.01v6.47h-5.61v6.13h5.25v6.15h-5.25v7.11h6.17v6.47h-14.57V132.57z"/>
	</g>
</g>
<g id="Layer_2">
	
		<rect x="129.37" y="112.62" transform="matrix(0.5315 -0.8471 0.8471 0.5315 -21.4287 188.2974)" class="st3" width="60.26" height="1.8"/>
	<g>
		<path class="st4" d="M103.12,86.52c-2.33,0.97-4.12,2.43-5.39,4.37c-1.27,1.94-1.9,4.29-1.9,7.03c0,1.28,0.12,2.18,0.36,2.68
			c0.24,0.5,0.36,0.79,0.36,0.86c-1.87,0-3.27-0.39-4.19-1.17c-0.92-0.78-1.38-2.07-1.38-3.88c0-2.22,0.91-4.38,2.73-6.48
			c1.82-2.1,4.16-3.8,7-5.1c2.85-1.3,5.69-1.95,8.54-1.95c0.49,0,1.18,0.03,2.08,0.1l-3.33,15.52h7.66L119,82.98h7.5l-8.28,38.95
			h-7.5l4.17-19.58h-7.66l-4.17,19.58h-7.5L103.12,86.52z"/>
		<path class="st4" d="M126.45,120.24c-1.42-1.34-2.14-3.43-2.14-6.28c0-2.4,0.47-5.03,1.41-7.92c0.94-2.88,2.46-5.37,4.58-7.47
			c2.12-2.1,4.81-3.15,8.07-3.15c3.82,0,5.73,1.67,5.73,5c0,1.94-0.56,3.73-1.67,5.36c-1.11,1.63-2.59,2.94-4.43,3.93
			c-1.84,0.99-3.8,1.55-5.88,1.69c-0.07,1.04-0.1,1.74-0.1,2.08c0,1.7,0.29,2.86,0.89,3.46c0.59,0.61,1.54,0.91,2.86,0.91
			c1.87,0,3.48-0.43,4.82-1.3c1.34-0.87,2.8-2.19,4.4-3.96h1.77c-3.85,6.42-8.63,9.63-14.32,9.63
			C129.87,122.24,127.87,121.57,126.45,120.24z M136.21,107.56c1.16-0.83,2.1-1.89,2.81-3.18c0.71-1.28,1.07-2.64,1.07-4.06
			c0-1.42-0.43-2.14-1.3-2.14c-1.25,0-2.47,1.09-3.67,3.28c-1.2,2.19-2.06,4.67-2.58,7.45
			C133.83,108.84,135.05,108.39,136.21,107.56z"/>
		<path class="st4" d="M146.11,120.68c-1.02-1.04-1.54-2.6-1.54-4.69c0-0.87,0.14-2,0.42-3.39l3.54-16.72h7.5l-3.75,17.71
			c-0.14,0.52-0.21,1.08-0.21,1.67c0,0.69,0.16,1.19,0.49,1.48c0.33,0.3,0.88,0.44,1.64,0.44c0.62,0,1.18-0.1,1.67-0.31
			c-0.14,1.74-0.76,3.06-1.85,3.98c-1.09,0.92-2.39,1.38-3.88,1.38C148.48,122.24,147.13,121.72,146.11,120.68z M150.77,91.88
			c-0.8-0.8-1.2-1.77-1.2-2.92s0.4-2.13,1.2-2.94c0.8-0.82,1.77-1.22,2.92-1.22c1.15,0,2.13,0.41,2.94,1.22
			c0.82,0.82,1.22,1.8,1.22,2.94s-0.41,2.12-1.22,2.92c-0.82,0.8-1.8,1.2-2.94,1.2C152.54,93.08,151.57,92.68,150.77,91.88z"/>
		<path class="st4" d="M60.69,165.68c-1.6-1.6-2.39-3.72-2.39-6.38c0-2.24,0.68-4.19,2.05-5.85c1.37-1.66,3.21-2.49,5.54-2.49
			c1.78,0,3.24,0.26,4.39,0.78c1.14,0.52,1.71,1.65,1.71,3.39c0,0.75-0.12,1.58-0.37,2.49c-0.75-0.62-1.39-1.05-1.93-1.28
			c-0.54-0.23-1.14-0.34-1.8-0.34c-1.37,0-2.44,0.46-3.2,1.37c-0.77,0.91-1.15,1.99-1.15,3.24c0,1.45,0.44,2.54,1.31,3.27
			c0.87,0.73,1.84,1.09,2.92,1.09c1,0,1.83-0.2,2.52-0.59c0.68-0.39,1.3-1.14,1.84-2.24c0.54-1.1,1.06-2.71,1.56-4.82l9.77-44.41
			c-2.78,1.12-4.94,2.84-6.47,5.16c-1.53,2.32-2.3,5.14-2.3,8.46c0,1.53,0.14,2.6,0.44,3.2c0.29,0.6,0.44,0.94,0.44,1.03
			c-2.24,0-3.91-0.47-5.01-1.4c-1.1-0.93-1.65-2.48-1.65-4.63c0-2.65,1.09-5.23,3.27-7.74c2.18-2.51,4.97-4.54,8.37-6.1
			c3.4-1.56,6.8-2.33,10.2-2.33h2.49l-9.33,44.16c-1.08,5.1-2.86,8.94-5.35,11.51c-2.49,2.57-6.16,3.86-11.01,3.86
			C64.55,168.08,62.28,167.28,60.69,165.68z"/>
		<path class="st4" d="M91.91,153.71c-1.22-1.24-1.84-3.11-1.84-5.6c0-1.04,0.17-2.38,0.5-4.04l4.23-19.97h8.96l-4.48,21.15
			c-0.12,0.62-0.19,1.2-0.19,1.74c0,1.7,0.62,2.55,1.87,2.55c1.16,0,2.16-0.49,2.99-1.46c0.83-0.97,1.49-2.31,1.99-4.01l4.23-19.97
			h8.96l-4.48,21.15c-0.17,0.62-0.25,1.29-0.25,1.99c0,0.83,0.2,1.42,0.59,1.77c0.39,0.35,1.05,0.53,1.96,0.53
			c1.16,0,2.17-0.5,3.02-1.49c0.85-1,1.52-2.32,2.02-3.98h2.61c-1.53,4.48-3.43,7.52-5.69,9.11c-2.26,1.6-4.53,2.4-6.81,2.4
			c-1.78,0-3.2-0.5-4.26-1.49c-1.06-1-1.69-2.47-1.9-4.42c-1.41,2.28-2.89,3.84-4.45,4.67c-1.56,0.83-3.14,1.24-4.76,1.24
			C94.74,155.57,93.14,154.95,91.91,153.71z"/>
		<path class="st4" d="M138.88,153.55c-1.18-1.35-1.77-3.02-1.77-5.01c0-0.87,0.1-1.86,0.31-2.95c0.21-1.1,0.42-2.17,0.65-3.2
			c0.23-1.04,0.38-1.7,0.47-1.99c0.33-1.45,0.64-2.88,0.93-4.29c0.29-1.41,0.44-2.55,0.44-3.42c0-2.12-0.75-3.17-2.24-3.17
			c-1.08,0-2.03,0.53-2.86,1.59c-0.83,1.06-1.49,2.44-1.99,4.14l-4.23,19.97h-8.96l6.59-31.1h8.96l-0.68,3.23
			c2.07-2.32,4.5-3.48,7.28-3.48c2.11,0,3.79,0.58,5.04,1.74c1.24,1.16,1.87,2.92,1.87,5.29c0,1.2-0.15,2.54-0.44,4.01
			c-0.29,1.47-0.71,3.27-1.24,5.38c-0.33,1.29-0.63,2.54-0.9,3.76c-0.27,1.22-0.4,2.19-0.4,2.89c0,0.83,0.19,1.47,0.56,1.93
			c0.37,0.46,1.02,0.68,1.93,0.68c1.24,0,2.24-0.45,2.99-1.34c0.75-0.89,1.49-2.27,2.24-4.14h2.61c-1.53,4.56-3.31,7.62-5.32,9.18
			c-2.01,1.56-4.1,2.33-6.25,2.33C141.91,155.57,140.06,154.9,138.88,153.55z"/>
		<path class="st4" d="M154.74,153.71c-1.22-1.24-1.84-3.11-1.84-5.6c0-1.04,0.17-2.38,0.5-4.04l4.23-19.97h8.96l-4.48,21.15
			c-0.17,0.62-0.25,1.29-0.25,1.99c0,0.83,0.2,1.42,0.59,1.77c0.39,0.35,1.05,0.53,1.96,0.53c0.75,0,1.41-0.12,1.99-0.37
			c-0.17,2.07-0.9,3.66-2.21,4.76c-1.31,1.1-2.85,1.65-4.63,1.65C157.57,155.57,155.96,154.95,154.74,153.71z M160.3,119.31
			c-0.95-0.95-1.43-2.11-1.43-3.48c0-1.37,0.48-2.54,1.43-3.51c0.95-0.97,2.12-1.46,3.48-1.46s2.54,0.49,3.51,1.46
			c0.97,0.97,1.46,2.15,1.46,3.51c0,1.37-0.49,2.53-1.46,3.48c-0.98,0.95-2.15,1.43-3.51,1.43S161.26,120.26,160.3,119.31z"/>
	</g>
	<linearGradient id="SVGID_1_" gradientUnits="userSpaceOnUse" x1="141.5684" y1="66.4787" x2="188.1201" y2="66.4787">
		<stop  offset="0" style="stop-color:#EC268F"/>
		<stop  offset="0.2724" style="stop-color:#E7228C"/>
		<stop  offset="0.6142" style="stop-color:#D71582"/>
		<stop  offset="0.9918" style="stop-color:#BE0172"/>
		<stop  offset="1" style="stop-color:#BD0072"/>
	</linearGradient>
	<path class="st5" d="M141.57,64.41c0,0,19.37-13.63,46.55-0.56c-3.43,0.4-20.49-8.37-45.44,10.92
		C143.24,70.39,142.68,65.41,141.57,64.41z"/>
	
		<linearGradient id="SVGID_00000136384063135697818730000008317009261533675411_" gradientUnits="userSpaceOnUse" x1="142.6844" y1="76.697" x2="188.5187" y2="76.697">
		<stop  offset="0" style="stop-color:#F9EC31"/>
		<stop  offset="0.2685" style="stop-color:#F9D836"/>
		<stop  offset="0.7258" style="stop-color:#FABA3D"/>
		<stop  offset="0.986" style="stop-color:#FAAF40"/>
	</linearGradient>
	<path style="fill:url(#SVGID_00000136384063135697818730000008317009261533675411_);" d="M159.5,91.35c0,0-8.45-12.04-16.82-16.58
		c4.62-4.22,21.68-17.54,45.44-10.92l0.4,1.2C188.52,65.05,175.92,72.62,159.5,91.35z"/>
	
		<linearGradient id="SVGID_00000073721129832897509350000013735056492305546166_" gradientUnits="userSpaceOnUse" x1="159.5036" y1="87.7615" x2="199.9411" y2="87.7615">
		<stop  offset="0" style="stop-color:#EC268F"/>
		<stop  offset="0.2724" style="stop-color:#E7228C"/>
		<stop  offset="0.6142" style="stop-color:#D71582"/>
		<stop  offset="0.9918" style="stop-color:#BE0172"/>
		<stop  offset="1" style="stop-color:#BD0072"/>
	</linearGradient>
	<path style="fill:url(#SVGID_00000073721129832897509350000013735056492305546166_);" d="M192.42,67.28c0,0,14.11,19.05,3.67,43.12
		c-0.72,1.12-13.31-11.4-36.59-19.05c6.1-8.05,24.63-24.63,29.02-26.3C190.59,67.2,192.42,67.28,192.42,67.28z"/>
	
		<linearGradient id="SVGID_00000054972522975873897550000014906980526213638576_" gradientUnits="userSpaceOnUse" x1="192.4246" y1="88.7756" x2="213.0976" y2="88.7756">
		<stop  offset="0" style="stop-color:#F9EC31"/>
		<stop  offset="0.2685" style="stop-color:#F9D836"/>
		<stop  offset="0.7258" style="stop-color:#FABA3D"/>
		<stop  offset="0.986" style="stop-color:#FAAF40"/>
	</linearGradient>
	<path style="fill:url(#SVGID_00000054972522975873897550000014906980526213638576_);" d="M192.42,67.28l0.88-0.4
		c0,0,22.48,15.15,19.53,43.59c0,1.29-4.18-4.37-16.74-0.07C196.09,110.4,206.25,91.35,192.42,67.28z"/>
	
		<linearGradient id="SVGID_00000014598007219371481820000012123267500693670036_" gradientUnits="userSpaceOnUse" x1="140.2133" y1="70.7878" x2="142.9634" y2="70.7878">
		<stop  offset="0" style="stop-color:#EC268F"/>
		<stop  offset="0.2724" style="stop-color:#E7228C"/>
		<stop  offset="0.6142" style="stop-color:#D71582"/>
		<stop  offset="0.9918" style="stop-color:#BE0172"/>
		<stop  offset="1" style="stop-color:#BD0072"/>
	</linearGradient>
	<path style="fill:url(#SVGID_00000014598007219371481820000012123267500693670036_);" d="M140.21,66.48c0,0,1.36,2.95,0,10.69
		c0.96-0.32,2.47-2.39,2.47-2.39s1.12-8.93-1.12-10.36C140.69,65.05,140.21,66.48,140.21,66.48z"/>
	
		<linearGradient id="SVGID_00000182510093095867382560000011684264413253240250_" gradientUnits="userSpaceOnUse" x1="196.0913" y1="103.0756" x2="157.7014" y2="103.0756">
		<stop  offset="0" style="stop-color:#EC268F"/>
		<stop  offset="0.2724" style="stop-color:#E7228C"/>
		<stop  offset="0.6142" style="stop-color:#D71582"/>
		<stop  offset="0.9918" style="stop-color:#BE0172"/>
		<stop  offset="1" style="stop-color:#BD0072"/>
	</linearGradient>
	<path style="fill:url(#SVGID_00000182510093095867382560000011684264413253240250_);" d="M159.5,92.23c0,0-0.56,3.27-1.43,3.91
		s0,1.59,0.72,1.59c-1.58,0,28.13,12.78,33,17.06c1.12,0.08,1.12-0.4,1.12-0.4s2.04-3.7,3.19-3.99
		c-4.41-2.59-20.49-15.07-36.59-19.05V92.23z"/>
	
		<linearGradient id="SVGID_00000078758827729704092410000002060190211540115115_" gradientUnits="userSpaceOnUse" x1="203.9297" y1="115.9844" x2="203.9297" y2="108.7939">
		<stop  offset="0" style="stop-color:#F9EC31"/>
		<stop  offset="0.2685" style="stop-color:#F9D836"/>
		<stop  offset="0.7258" style="stop-color:#FABA3D"/>
		<stop  offset="0.986" style="stop-color:#FAAF40"/>
	</linearGradient>
	<path style="fill:url(#SVGID_00000078758827729704092410000002060190211540115115_);" d="M196.09,110.4c0,0,1.36,1.83-0.32,3.59
		s0,1.99,0,1.99s5.98-1.59,8.21-1.91c2.23-0.32,4.86-0.16,6.06,0.08c1.99,0.65,1.59-1.53,2.79-3.68
		C207.01,107.14,197.06,109.68,196.09,110.4z"/>
	<path class="st12" d="M188.12,63.85c0,0,4.3-1.04,5.18,3.03c-0.45,1.16-3.17-0.24-3.17-0.24S188.12,65.46,188.12,63.85z"/>
	
		<linearGradient id="SVGID_00000052793696502982063940000012194394885316808882_" gradientUnits="userSpaceOnUse" x1="140.9307" y1="85.234" x2="159.5036" y2="85.234">
		<stop  offset="0" style="stop-color:#F9EC31"/>
		<stop  offset="0.2685" style="stop-color:#F9D836"/>
		<stop  offset="0.7258" style="stop-color:#FABA3D"/>
		<stop  offset="0.986" style="stop-color:#FAAF40"/>
	</linearGradient>
	<path style="fill:url(#SVGID_00000052793696502982063940000012194394885316808882_);" d="M140.93,78.68l1.75-3.91
		c0,0,9.41,4.62,16.82,16.58c-2.47,0.56-3.67,4.15-3.67,4.15s-0.8,0.96-1.2-1.36C154.24,91.83,140.93,78.68,140.93,78.68z"/>
	<path class="st14" d="M87.1,84.52c1.37,3.6-6.34,9.49-0.85,18.12c-8.98-3.37-12.33-11.43-12.62-13.02
		c-0.67-3.8,0.54-7.67,4.26-9.08S85.74,80.92,87.1,84.52z"/>
	<path class="st15" d="M70.27,109.22c2.01-1.12,0.89-6.54,6.69-8.43c-5.3-1.73-9.93,0.67-10.68,1.28c-1.78,1.46-2.75,3.63-1.65,5.61
		C65.74,109.65,68.26,110.34,70.27,109.22z"/>
	<path class="st16" d="M66.28,95.85c1.1,0.5,3.05-1.67,5.66,0.19c-0.93-2.78-3.39-3.99-3.89-4.12c-1.17-0.3-2.4-0.03-2.89,1.06
		S65.17,95.35,66.28,95.85z"/>
</g>
</svg>
