<?xml version="1.0" encoding="utf-8"?>
<!-- Generator: Adobe Illustrator 27.9.0, SVG Export Plug-In . SVG Version: 6.00 Build 0)  -->
<svg version="1.1" xmlns="http://www.w3.org/2000/svg" xmlns:xlink="http://www.w3.org/1999/xlink" x="0px" y="0px"
	 viewBox="0 0 249 249" style="enable-background:new 0 0 249 249;" xml:space="preserve">
<style type="text/css">
	.st0{display:none;}
	.st1{display:inline;}
	.st2{fill:#231F20;}
	.st3{fill:#00879A;}
	.st4{opacity:0.73;}
	.st5{fill:#9DD7D6;}
	
		.st6{clip-path:url(#SVGID_00000018924979676982011190000018371268714695437699_);fill-rule:evenodd;clip-rule:evenodd;fill:#9DD7D6;}
	.st7{fill:#3CC0C9;}
	.st8{font-family:'Impact';}
	.st9{font-size:47.0178px;}
	.st10{fill:none;stroke:#000000;stroke-width:7.3577;stroke-miterlimit:10;}
	.st11{fill:none;stroke:#000000;stroke-width:5.5183;stroke-miterlimit:10;}
	.st12{fill:#E10A17;}
	.st13{fill:#1D1E1C;}
	.st14{fill:#D4D92E;}
	.st15{fill:#221E20;}
</style>
<g id="Layer_1" class="st0">
	<g class="st1">
		<path class="st2" d="M57.13,78.2h12.51c3.95,0,6.95,0.31,8.98,0.92c2.04,0.62,3.68,1.86,4.93,3.74c1.25,1.88,1.88,4.9,1.88,9.06
			c0,2.82-0.44,4.78-1.33,5.89c-0.88,1.11-2.63,1.96-5.23,2.56c2.9,0.66,4.87,1.74,5.9,3.26c1.03,1.52,1.55,3.85,1.55,6.99v4.47
			c0,3.26-0.37,5.67-1.12,7.24c-0.74,1.57-1.93,2.64-3.56,3.22c-1.63,0.58-4.96,0.86-10.01,0.86H57.13V78.2z M69.67,86.45v10.72
			c0.54-0.02,0.95-0.03,1.25-0.03c1.23,0,2.02-0.3,2.35-0.91c0.34-0.61,0.51-2.34,0.51-5.2c0-1.51-0.14-2.57-0.42-3.17
			c-0.28-0.61-0.64-0.99-1.09-1.15C71.83,86.56,70.96,86.47,69.67,86.45z M69.67,104.68v13.49c1.77-0.06,2.89-0.34,3.38-0.83
			c0.49-0.5,0.73-1.72,0.73-3.66v-4.5c0-2.07-0.22-3.32-0.66-3.75C72.69,104.99,71.54,104.74,69.67,104.68z"/>
		<path class="st2" d="M112.5,78.2l7.17,48.23h-12.82l-0.67-8.67h-4.49l-0.75,8.67H87.97l6.4-48.23H112.5z M105.85,109.21
			c-0.63-5.46-1.27-12.21-1.91-20.26c-1.28,9.24-2.08,15.99-2.41,20.26H105.85z"/>
		<path class="st2" d="M151.08,99.2h-12.54v-8.38c0-2.44-0.13-3.96-0.4-4.56c-0.27-0.6-0.86-0.91-1.77-0.91
			c-1.03,0-1.69,0.37-1.97,1.1c-0.28,0.73-0.42,2.32-0.42,4.77v22.4c0,2.34,0.14,3.87,0.42,4.59c0.28,0.71,0.9,1.07,1.88,1.07
			c0.93,0,1.54-0.36,1.83-1.07c0.29-0.72,0.43-2.4,0.43-5.05v-6.06h12.54v1.88c0,4.99-0.35,8.53-1.06,10.62
			c-0.7,2.09-2.26,3.92-4.68,5.49c-2.41,1.57-5.39,2.36-8.92,2.36c-3.67,0-6.7-0.67-9.09-2c-2.38-1.33-3.96-3.17-4.74-5.53
			c-0.77-2.35-1.16-5.89-1.16-10.62V95.21c0-3.47,0.12-6.08,0.36-7.82c0.24-1.74,0.95-3.41,2.13-5.02c1.18-1.61,2.82-2.87,4.91-3.8
			c2.1-0.92,4.5-1.39,7.22-1.39c3.69,0,6.74,0.71,9.15,2.14c2.4,1.43,3.98,3.21,4.74,5.34s1.13,5.45,1.13,9.95V99.2z"/>
		<path class="st2" d="M185.47,78.2l-7.19,21.78l7.88,26.45H173.2l-5.08-20.67v20.67h-12.54V78.2h12.54v18.74l5.59-18.74H185.47z"/>
	</g>
	<g class="st1">
		<path class="st2" d="M72.64,130.57v6.47h-4.99v25.85h-8.4v-25.85h-4.97v-6.47H72.64z"/>
		<path class="st2" d="M93.76,149.49c0,3.25-0.08,5.55-0.23,6.9c-0.15,1.35-0.63,2.59-1.44,3.7c-0.81,1.12-1.89,1.98-3.26,2.58
			c-1.37,0.6-2.97,0.9-4.79,0.9c-1.73,0-3.28-0.28-4.66-0.85c-1.38-0.57-2.49-1.41-3.32-2.55c-0.84-1.13-1.34-2.36-1.5-3.69
			c-0.16-1.33-0.24-3.66-0.24-6.99v-5.53c0-3.25,0.08-5.55,0.23-6.9c0.15-1.35,0.63-2.59,1.44-3.7c0.81-1.12,1.89-1.98,3.26-2.58
			c1.37-0.6,2.97-0.9,4.79-0.9c1.73,0,3.28,0.28,4.66,0.85c1.38,0.57,2.49,1.41,3.32,2.55c0.84,1.13,1.34,2.36,1.5,3.69
			c0.16,1.33,0.24,3.66,0.24,6.99V149.49z M85.36,138.87c0-1.5-0.08-2.47-0.25-2.88c-0.17-0.42-0.51-0.63-1.03-0.63
			c-0.44,0-0.78,0.17-1.01,0.51c-0.23,0.34-0.35,1.34-0.35,3v15.09c0,1.88,0.08,3.03,0.23,3.47c0.15,0.44,0.51,0.66,1.07,0.66
			c0.57,0,0.94-0.25,1.1-0.76c0.16-0.51,0.24-1.71,0.24-3.61V138.87z"/>
		<path class="st2" d="M123.72,144.64h-8.4v-5.62c0-1.63-0.09-2.65-0.27-3.06c-0.18-0.4-0.58-0.61-1.19-0.61
			c-0.69,0-1.13,0.25-1.32,0.74c-0.19,0.49-0.28,1.56-0.28,3.19v15.01c0,1.57,0.09,2.6,0.28,3.07c0.19,0.48,0.61,0.72,1.26,0.72
			c0.63,0,1.03-0.24,1.23-0.72c0.19-0.48,0.29-1.61,0.29-3.38v-4.06h8.4v1.26c0,3.35-0.24,5.72-0.71,7.12
			c-0.47,1.4-1.52,2.63-3.13,3.68c-1.62,1.05-3.61,1.58-5.98,1.58c-2.46,0-4.49-0.45-6.09-1.34c-1.6-0.89-2.65-2.13-3.17-3.7
			c-0.52-1.58-0.78-3.95-0.78-7.12v-9.44c0-2.33,0.08-4.08,0.24-5.24c0.16-1.16,0.64-2.29,1.43-3.36c0.79-1.08,1.89-1.93,3.29-2.55
			c1.4-0.62,3.02-0.93,4.84-0.93c2.48,0,4.52,0.48,6.13,1.44c1.61,0.96,2.67,2.15,3.17,3.58c0.51,1.43,0.76,3.65,0.76,6.67V144.64z"
			/>
		<path class="st2" d="M145.94,149.49c0,3.25-0.08,5.55-0.23,6.9c-0.15,1.35-0.63,2.59-1.44,3.7c-0.81,1.12-1.89,1.98-3.26,2.58
			c-1.37,0.6-2.97,0.9-4.79,0.9c-1.73,0-3.28-0.28-4.66-0.85c-1.38-0.57-2.49-1.41-3.32-2.55c-0.84-1.13-1.34-2.36-1.5-3.69
			c-0.16-1.33-0.24-3.66-0.24-6.99v-5.53c0-3.25,0.08-5.55,0.23-6.9c0.15-1.35,0.63-2.59,1.44-3.7c0.81-1.12,1.89-1.98,3.26-2.58
			c1.37-0.6,2.97-0.9,4.79-0.9c1.73,0,3.28,0.28,4.66,0.85c1.38,0.57,2.49,1.41,3.32,2.55c0.84,1.13,1.34,2.36,1.5,3.69
			c0.16,1.33,0.24,3.66,0.24,6.99V149.49z M137.54,138.87c0-1.5-0.08-2.47-0.25-2.88c-0.17-0.42-0.51-0.63-1.03-0.63
			c-0.44,0-0.78,0.17-1.01,0.51c-0.23,0.34-0.35,1.34-0.35,3v15.09c0,1.88,0.08,3.03,0.23,3.47c0.15,0.44,0.51,0.66,1.07,0.66
			c0.57,0,0.94-0.25,1.1-0.76c0.16-0.51,0.24-1.71,0.24-3.61V138.87z"/>
		<path class="st2" d="M149.08,130.57h5.95c3.97,0,6.65,0.15,8.05,0.46c1.4,0.31,2.55,1.09,3.43,2.35c0.88,1.26,1.33,3.26,1.33,6.02
			c0,2.52-0.31,4.21-0.94,5.07c-0.63,0.87-1.86,1.38-3.69,1.56c1.66,0.41,2.78,0.97,3.35,1.66c0.57,0.69,0.93,1.33,1.07,1.91
			c0.14,0.58,0.21,2.17,0.21,4.78v8.52h-7.81v-10.74c0-1.73-0.14-2.8-0.41-3.21c-0.27-0.41-0.99-0.62-2.15-0.62v14.57h-8.4V130.57z
			 M157.48,136.1v7.19c0.94,0,1.61-0.13,1.99-0.39c0.38-0.26,0.57-1.1,0.57-2.53v-1.78c0-1.02-0.18-1.7-0.55-2.02
			S158.45,136.1,157.48,136.1z"/>
		<path class="st2" d="M171.09,130.57h14.01v6.47h-5.61v6.13h5.25v6.15h-5.25v7.11h6.17v6.47h-14.57V130.57z"/>
	</g>
</g>
<g id="Layer_2" class="st0">
	<g class="st1">
		<g>
			<path class="st3" d="M105.65,165.03h1.73c0.8,0,1.39,0.12,1.74,0.35c0.36,0.23,0.54,0.6,0.54,1.11c0,0.34-0.09,0.62-0.26,0.85
				s-0.43,0.37-0.76,0.43v0.04c0.41,0.08,0.71,0.23,0.9,0.46c0.19,0.23,0.29,0.54,0.29,0.92c0,0.52-0.18,0.94-0.55,1.23
				c-0.37,0.3-0.88,0.45-1.53,0.45h-2.11V165.03z M106.61,167.44h0.92c0.4,0,0.69-0.06,0.87-0.19s0.28-0.34,0.28-0.64
				c0-0.27-0.1-0.47-0.3-0.6c-0.2-0.12-0.51-0.18-0.94-0.18h-0.83V167.44z M106.61,168.22v1.85h1.01c0.4,0,0.7-0.08,0.9-0.23
				s0.31-0.39,0.31-0.72c0-0.3-0.1-0.53-0.31-0.67c-0.21-0.15-0.52-0.22-0.95-0.22H106.61z"/>
			<path class="st3" d="M116.96,167.94c0,0.95-0.24,1.69-0.71,2.22c-0.48,0.53-1.15,0.79-2.02,0.79c-0.88,0-1.56-0.26-2.03-0.78
				c-0.47-0.52-0.71-1.27-0.71-2.23c0-0.96,0.24-1.7,0.71-2.22c0.48-0.52,1.15-0.77,2.03-0.77c0.87,0,1.54,0.26,2.01,0.79
				C116.73,166.25,116.96,166.99,116.96,167.94z M112.51,167.94c0,0.72,0.15,1.26,0.44,1.64c0.29,0.37,0.72,0.56,1.29,0.56
				c0.57,0,1-0.18,1.28-0.55s0.43-0.91,0.43-1.64c0-0.72-0.14-1.26-0.43-1.63c-0.29-0.37-0.71-0.56-1.28-0.56
				c-0.57,0-1,0.19-1.3,0.56C112.65,166.68,112.51,167.22,112.51,167.94z"/>
			<path class="st3" d="M124.13,167.94c0,0.95-0.24,1.69-0.71,2.22c-0.48,0.53-1.15,0.79-2.02,0.79c-0.88,0-1.56-0.26-2.03-0.78
				c-0.47-0.52-0.71-1.27-0.71-2.23c0-0.96,0.24-1.7,0.71-2.22c0.48-0.52,1.15-0.77,2.03-0.77c0.87,0,1.54,0.26,2.01,0.79
				C123.89,166.25,124.13,166.99,124.13,167.94z M119.67,167.94c0,0.72,0.15,1.26,0.44,1.64c0.29,0.37,0.72,0.56,1.29,0.56
				c0.57,0,1-0.18,1.28-0.55c0.29-0.37,0.43-0.91,0.43-1.64c0-0.72-0.14-1.26-0.43-1.63c-0.29-0.37-0.71-0.56-1.28-0.56
				c-0.57,0-1,0.19-1.3,0.56C119.82,166.68,119.67,167.22,119.67,167.94z"/>
			<path class="st3" d="M129.48,169.28c0,0.52-0.19,0.93-0.56,1.22c-0.38,0.3-0.89,0.44-1.55,0.44c-0.66,0-1.2-0.1-1.62-0.31v-0.9
				c0.27,0.13,0.55,0.22,0.85,0.3c0.3,0.07,0.58,0.11,0.84,0.11c0.38,0,0.66-0.07,0.84-0.22c0.18-0.14,0.27-0.34,0.27-0.58
				c0-0.22-0.08-0.4-0.25-0.56c-0.17-0.15-0.51-0.33-1.02-0.54c-0.53-0.22-0.91-0.46-1.13-0.74c-0.22-0.28-0.33-0.61-0.33-1
				c0-0.49,0.17-0.87,0.52-1.15c0.35-0.28,0.81-0.42,1.39-0.42c0.56,0,1.12,0.12,1.67,0.37l-0.3,0.78
				c-0.52-0.22-0.98-0.33-1.39-0.33c-0.31,0-0.54,0.07-0.7,0.2c-0.16,0.13-0.24,0.31-0.24,0.53c0,0.15,0.03,0.28,0.1,0.39
				c0.06,0.11,0.17,0.21,0.32,0.31s0.41,0.22,0.79,0.38c0.43,0.18,0.74,0.34,0.94,0.5c0.2,0.15,0.35,0.33,0.44,0.52
				C129.43,168.79,129.48,169.02,129.48,169.28z"/>
			<path class="st3" d="M133.36,170.87h-0.95v-5.02h-1.72v-0.82h4.39v0.82h-1.72V170.87z"/>
			<path class="st3" d="M136.71,165.03h1.73c0.8,0,1.39,0.12,1.74,0.35c0.36,0.23,0.54,0.6,0.54,1.11c0,0.34-0.09,0.62-0.26,0.85
				s-0.43,0.37-0.76,0.43v0.04c0.41,0.08,0.71,0.23,0.9,0.46c0.19,0.23,0.29,0.54,0.29,0.92c0,0.52-0.18,0.94-0.55,1.23
				c-0.37,0.3-0.88,0.45-1.53,0.45h-2.11V165.03z M137.66,167.44h0.92c0.4,0,0.69-0.06,0.87-0.19c0.18-0.13,0.28-0.34,0.28-0.64
				c0-0.27-0.1-0.47-0.3-0.6c-0.2-0.12-0.51-0.18-0.94-0.18h-0.83V167.44z M137.66,168.22v1.85h1.01c0.4,0,0.7-0.08,0.9-0.23
				s0.31-0.39,0.31-0.72c0-0.3-0.1-0.53-0.31-0.67c-0.21-0.15-0.52-0.22-0.95-0.22H137.66z"/>
			<path class="st3" d="M148.02,167.94c0,0.95-0.24,1.69-0.71,2.22c-0.48,0.53-1.15,0.79-2.02,0.79c-0.88,0-1.56-0.26-2.03-0.78
				c-0.47-0.52-0.71-1.27-0.71-2.23c0-0.96,0.24-1.7,0.71-2.22c0.48-0.52,1.15-0.77,2.03-0.77c0.87,0,1.54,0.26,2.01,0.79
				C147.78,166.25,148.02,166.99,148.02,167.94z M143.56,167.94c0,0.72,0.15,1.26,0.44,1.64s0.72,0.56,1.29,0.56
				c0.57,0,1-0.18,1.28-0.55s0.43-0.91,0.43-1.64c0-0.72-0.14-1.26-0.43-1.63c-0.29-0.37-0.71-0.56-1.28-0.56
				c-0.57,0-1,0.19-1.3,0.56C143.71,166.68,143.56,167.22,143.56,167.94z"/>
			<path class="st3" d="M154.3,170.87h-1.1l-1.46-2.39l-1.47,2.39h-1.02l1.94-3.03l-1.81-2.81h1.06l1.35,2.21l1.35-2.21h1.03
				l-1.82,2.83L154.3,170.87z"/>
		</g>
		<g>
			<g class="st4">
				<g>
					<path class="st5" d="M56.6,111.13l3.59,2.07l0.28,0.15v0.32v4.14v0.31l-0.28,0.17l-3.59,2.07l-0.28,0.15l-0.28-0.15l-3.59-2.07
						l-0.28-0.17v-0.31v-4.14v-0.32l0.28-0.15l3.59-2.07l0.28-0.17L56.6,111.13z M59.36,113.98l-3.04-1.75l-3.04,1.75v3.51
						l3.04,1.75l3.04-1.75V113.98z"/>
					<g>
						<defs>
							<rect id="SVGID_1_" x="40.64" y="98.87" width="31.36" height="33.76"/>
						</defs>
						<clipPath id="SVGID_00000022544916455403755320000001699920460300018089_">
							<use xlink:href="#SVGID_1_"  style="overflow:visible;"/>
						</clipPath>
						
							<path style="clip-path:url(#SVGID_00000022544916455403755320000001699920460300018089_);fill-rule:evenodd;clip-rule:evenodd;fill:#9DD7D6;" d="
							M56.87,99.42v1.35l1.44-1.44c0.22-0.22,0.57-0.22,0.78,0c0.22,0.21,0.22,0.57,0,0.78l-2.22,2.22v2.09l2.93-2.92
							c0.21-0.21,0.57-0.21,0.78,0c0.22,0.22,0.22,0.57,0,0.78l-3.71,3.7v2.35l1.26-1.24c0.21-0.22,0.57-0.22,0.78,0
							c0.22,0.21,0.22,0.57,0,0.78l-2.04,2.03v1.63c0,0.29-0.25,0.55-0.55,0.55c-0.31,0-0.55-0.26-0.55-0.55v-1.63l-2.04-2.03
							c-0.22-0.21-0.22-0.57,0-0.78c0.21-0.22,0.57-0.22,0.78,0l1.26,1.24v-2.35l-3.71-3.7c-0.21-0.22-0.21-0.57,0-0.78
							c0.21-0.21,0.57-0.21,0.78,0l2.93,2.92v-2.09l-2.22-2.22c-0.21-0.21-0.21-0.57,0-0.78c0.22-0.22,0.57-0.22,0.78,0l1.44,1.44
							v-1.35c0-0.31,0.25-0.55,0.55-0.55C56.63,98.87,56.87,99.12,56.87,99.42"/>
						
							<path style="clip-path:url(#SVGID_00000022544916455403755320000001699920460300018089_);fill-rule:evenodd;clip-rule:evenodd;fill:#9DD7D6;" d="
							M42.47,107.11l1.17,0.68l-0.52-1.96c-0.09-0.31,0.09-0.6,0.38-0.68c0.29-0.09,0.6,0.09,0.68,0.38l0.81,3.04l1.83,1.04l-1.06-4
							c-0.09-0.29,0.09-0.6,0.38-0.68c0.29-0.08,0.6,0.11,0.67,0.4l1.35,5.06l2.03,1.17l-0.46-1.7c-0.08-0.29,0.11-0.6,0.4-0.68
							c0.29-0.09,0.6,0.09,0.68,0.38l0.74,2.78l1.41,0.81c0.26,0.15,0.35,0.49,0.2,0.75c-0.15,0.26-0.49,0.35-0.75,0.2l-1.4-0.8
							l-2.79,0.74c-0.29,0.08-0.6-0.09-0.68-0.38c-0.08-0.29,0.09-0.6,0.4-0.68l1.7-0.46l-2.03-1.18l-5.06,1.37
							c-0.29,0.09-0.6-0.09-0.68-0.38c-0.08-0.29,0.09-0.6,0.38-0.68l4-1.09l-1.83-1.04l-3.04,0.81c-0.29,0.08-0.6-0.11-0.68-0.4
							c-0.08-0.29,0.11-0.6,0.4-0.68l1.96-0.52l-1.17-0.68c-0.26-0.15-0.35-0.49-0.2-0.75C41.87,107.05,42.21,106.96,42.47,107.11"
							/>
						
							<path style="clip-path:url(#SVGID_00000022544916455403755320000001699920460300018089_);fill-rule:evenodd;clip-rule:evenodd;fill:#9DD7D6;" d="
							M41.91,123.43l1.17-0.68l-1.96-0.54c-0.29-0.08-0.48-0.38-0.4-0.68c0.08-0.29,0.38-0.46,0.68-0.38l3.04,0.81l1.83-1.06
							l-4-1.07c-0.29-0.09-0.46-0.38-0.38-0.68c0.08-0.31,0.38-0.48,0.68-0.4l5.06,1.37l2.03-1.17l-1.7-0.46
							c-0.31-0.08-0.48-0.38-0.4-0.67c0.08-0.29,0.38-0.48,0.68-0.4l2.79,0.75l1.4-0.81c0.26-0.15,0.6-0.06,0.75,0.2
							c0.15,0.28,0.06,0.61-0.2,0.77l-1.41,0.8l-0.74,2.79c-0.08,0.29-0.38,0.46-0.68,0.38c-0.29-0.08-0.48-0.38-0.4-0.68l0.46-1.72
							l-2.03,1.18l-1.35,5.06c-0.08,0.29-0.38,0.48-0.67,0.38c-0.29-0.08-0.48-0.38-0.38-0.68l1.06-3.99l-1.83,1.04l-0.81,3.04
							c-0.08,0.29-0.38,0.46-0.68,0.38c-0.29-0.08-0.48-0.38-0.38-0.68l0.52-1.96l-1.17,0.68c-0.26,0.15-0.6,0.06-0.75-0.2
							C41.56,123.93,41.65,123.57,41.91,123.43"/>
						
							<path style="clip-path:url(#SVGID_00000022544916455403755320000001699920460300018089_);fill-rule:evenodd;clip-rule:evenodd;fill:#9DD7D6;" d="
							M55.77,132.07v-1.35l-1.44,1.44c-0.22,0.22-0.57,0.22-0.78,0c-0.21-0.21-0.21-0.57,0-0.78l2.22-2.22v-2.1l-2.93,2.92
							c-0.21,0.21-0.57,0.21-0.78,0c-0.21-0.21-0.21-0.57,0-0.78l3.71-3.7v-2.35l-1.26,1.26c-0.21,0.22-0.57,0.22-0.78,0
							c-0.22-0.21-0.22-0.57,0-0.78l2.04-2.04v-1.61c0-0.31,0.25-0.55,0.55-0.55c0.31,0,0.55,0.25,0.55,0.55v1.61l2.04,2.04
							c0.22,0.21,0.22,0.57,0,0.78c-0.21,0.22-0.57,0.22-0.78,0l-1.26-1.26v2.35l3.71,3.7c0.22,0.21,0.22,0.57,0,0.78
							c-0.21,0.21-0.57,0.21-0.78,0l-2.93-2.92v2.1l2.22,2.22c0.22,0.21,0.22,0.57,0,0.78c-0.22,0.22-0.57,0.22-0.78,0l-1.44-1.44
							v1.35c0,0.29-0.25,0.55-0.55,0.55C56.01,132.63,55.77,132.36,55.77,132.07"/>
						
							<path style="clip-path:url(#SVGID_00000022544916455403755320000001699920460300018089_);fill-rule:evenodd;clip-rule:evenodd;fill:#9DD7D6;" d="
							M70.18,124.39l-1.17-0.68l0.54,1.96c0.08,0.29-0.11,0.6-0.4,0.68c-0.29,0.08-0.6-0.09-0.68-0.38l-0.81-3.04l-1.81-1.04
							l1.06,3.99c0.08,0.29-0.11,0.6-0.4,0.68c-0.29,0.09-0.6-0.09-0.68-0.38l-1.34-5.06l-2.04-1.18l0.46,1.72
							c0.08,0.29-0.11,0.6-0.4,0.68c-0.29,0.08-0.6-0.09-0.68-0.38l-0.74-2.79l-1.41-0.8c-0.26-0.15-0.35-0.49-0.2-0.77
							c0.15-0.26,0.49-0.35,0.75-0.2l1.41,0.81l2.78-0.75c0.29-0.08,0.6,0.11,0.68,0.4c0.08,0.29-0.09,0.6-0.38,0.68l-1.72,0.46
							l2.04,1.17l5.05-1.37c0.29-0.08,0.6,0.11,0.68,0.4c0.08,0.29-0.09,0.6-0.38,0.68l-3.99,1.07l1.81,1.06l3.04-0.81
							c0.29-0.08,0.6,0.09,0.68,0.38c0.08,0.29-0.11,0.6-0.4,0.68l-1.96,0.54l1.17,0.68c0.26,0.14,0.35,0.49,0.2,0.75
							C70.79,124.45,70.44,124.54,70.18,124.39"/>
						
							<path style="clip-path:url(#SVGID_00000022544916455403755320000001699920460300018089_);fill-rule:evenodd;clip-rule:evenodd;fill:#9DD7D6;" d="
							M70.73,108.06l-1.17,0.68l1.96,0.52c0.29,0.08,0.48,0.38,0.4,0.68c-0.08,0.29-0.38,0.48-0.68,0.4l-3.04-0.81l-1.81,1.04
							l3.99,1.09c0.29,0.08,0.46,0.38,0.38,0.68c-0.08,0.29-0.38,0.48-0.68,0.38l-5.05-1.37l-2.04,1.18l1.72,0.46
							c0.29,0.08,0.46,0.38,0.38,0.67c-0.08,0.29-0.38,0.46-0.68,0.38l-2.78-0.74l-1.41,0.8c-0.26,0.15-0.6,0.06-0.75-0.2
							c-0.15-0.26-0.06-0.6,0.2-0.75l1.41-0.81l0.74-2.78c0.08-0.29,0.38-0.46,0.68-0.38c0.29,0.08,0.48,0.38,0.4,0.68l-0.46,1.7
							l2.04-1.17l1.34-5.06c0.08-0.29,0.38-0.48,0.68-0.4c0.29,0.08,0.48,0.38,0.4,0.68l-1.06,4l1.81-1.04l0.81-3.04
							c0.08-0.29,0.38-0.48,0.68-0.38c0.29,0.08,0.48,0.37,0.4,0.68l-0.54,1.96l1.17-0.68c0.26-0.15,0.61-0.06,0.75,0.2
							C71.08,107.57,70.99,107.91,70.73,108.06"/>
					</g>
				</g>
			</g>
		</g>
		<text transform="matrix(1 0 0 1 47.2832 158.3854)" class="st7 st8 st9"> </text>
		<g>
			<path class="st3" d="M79.72,121.22v37.17h-9.67v-15.61h-2.89v15.61H57.5v-37.17h9.67v13.29h2.89v-13.29H79.72z"/>
			<path class="st3" d="M105.69,142.98c0,3.73-0.09,6.38-0.26,7.93c-0.18,1.55-0.73,2.97-1.65,4.26c-0.93,1.29-2.18,2.27-3.75,2.96
				c-1.58,0.69-3.41,1.03-5.51,1.03c-1.99,0-3.78-0.33-5.36-0.98c-1.58-0.65-2.86-1.63-3.82-2.93c-0.96-1.3-1.54-2.72-1.72-4.25
				s-0.28-4.21-0.28-8.04v-6.36c0-3.73,0.09-6.38,0.26-7.93c0.18-1.55,0.73-2.97,1.65-4.26c0.93-1.29,2.18-2.27,3.75-2.96
				c1.58-0.69,3.41-1.03,5.51-1.03c1.99,0,3.78,0.33,5.36,0.98c1.58,0.65,2.86,1.63,3.82,2.93c0.96,1.3,1.54,2.72,1.72,4.25
				c0.18,1.53,0.28,4.21,0.28,8.04V142.98z M96.02,130.77c0-1.73-0.1-2.84-0.29-3.32c-0.19-0.48-0.59-0.72-1.18-0.72
				c-0.51,0-0.89,0.2-1.16,0.59c-0.27,0.39-0.4,1.54-0.4,3.46v17.36c0,2.16,0.09,3.49,0.26,3.99c0.18,0.51,0.59,0.76,1.23,0.76
				c0.66,0,1.08-0.29,1.26-0.87c0.18-0.58,0.28-1.97,0.28-4.16V130.77z"/>
			<path class="st3" d="M118.96,121.22v29.73h5.88v7.44h-15.54v-37.17H118.96z"/>
			<path class="st3" d="M136.84,121.22v37.17h-9.67v-37.17H136.84z"/>
			<path class="st3" d="M140.72,121.22h7.23c4.67,0,7.82,0.21,9.47,0.64c1.64,0.43,2.9,1.13,3.75,2.11
				c0.86,0.98,1.39,2.07,1.61,3.27c0.21,1.2,0.32,3.56,0.32,7.08v13.02c0,3.34-0.16,5.57-0.47,6.69c-0.31,1.12-0.86,2-1.64,2.64
				c-0.78,0.64-1.74,1.08-2.89,1.33c-1.15,0.25-2.88,0.38-5.19,0.38h-12.19V121.22z M150.39,127.58v24.45
				c1.39,0,2.25-0.28,2.57-0.84c0.32-0.56,0.48-2.08,0.48-4.56v-14.44c0-1.68-0.05-2.76-0.16-3.24c-0.11-0.47-0.35-0.82-0.73-1.04
				C152.16,127.69,151.44,127.58,150.39,127.58z"/>
			<path class="st3" d="M183.42,121.22l5.53,37.17h-9.88l-0.52-6.68h-3.46l-0.58,6.68h-9.99l4.93-37.17H183.42z M178.3,145.12
				c-0.49-4.21-0.98-9.41-1.47-15.61c-0.98,7.12-1.6,12.32-1.85,15.61H178.3z"/>
			<path class="st3" d="M208.36,121.22l-7.05,23.72v13.45h-8.95v-13.45l-6.8-23.72h8.88c1.39,7.26,2.17,12.14,2.35,14.65
				c0.54-3.97,1.43-8.85,2.69-14.65H208.36z"/>
		</g>
		<path class="st5" d="M88.36,123.94c0-2.82-0.28-5.97-0.85-9.03c-1.08,0.19-2.21,0.28-3.29,0.38c-1.46,3.81-2.73,7.29-3.67,9.97
			c-0.38,0.14-0.75,0.19-1.18,0.19c-1.13,0-1.97-0.38-1.97-1.36c0-1.18,0.89-4.61,2.3-8.93c-5.31-0.75-7.85-3.95-7.85-7.52
			c0-3.76,2.4-7.15,7.34-7.15c1.97,0,3.62,0.8,5.03,2.16c0.66-1.65,1.27-3.29,1.93-4.89c2.68-6.72,5.41-13.17,6.63-15.61
			c-4.51,4.09-11.38,10.63-16.22,10.63c-3.34,0-4.66-2.73-4.66-4.98c0-1.55,0.66-2.87,1.74-2.87c0.71,1.74,1.55,2.92,3.9,2.92
			c5.5,0,14.39-7.1,16.5-8.32c1.46,0.19,3.15,1.41,3.15,2.49c0,0.33-0.52,1.32-0.89,2.3c-1.88,4.84-5.55,14.06-9.03,23.04
			c0.75,1.74,1.36,3.67,1.79,5.69c0.99-0.19,1.97-0.42,2.96-0.71c0.09-0.28,0.19-0.56,0.28-0.85c2.73-8.13,6.91-18.86,10.2-27.08
			c1.65-4.04,3.81-6.25,7.34-6.25c2.35,0,3.43,0.94,3.43,1.79c0,0.24-0.09,0.47-0.28,0.66c-0.56-0.28-1.41-0.47-2.07-0.47
			c-1.6,0-2.59,1.5-3.29,3.2c-3.01,7.1-6.82,17.44-10.16,26.66c1.36-0.85,2.59-1.83,3.43-3.01c0.66,0.14,0.85,0.52,0.85,0.89
			c0,1.5-2.07,3.15-5.13,4.51c-1.83,5.08-3.48,9.69-4.7,12.98c-0.19,0.05-0.66,0.09-1.08,0.09
			C89.77,125.45,88.36,125.21,88.36,123.94z M80.27,113.37c0.75-2.21,1.6-4.56,2.49-6.91c0.19-0.56,0.42-1.08,0.61-1.65
			c-1.22-1.46-2.77-2.4-4.61-2.49c-1.5,1.46-2.26,3.48-2.26,5.36C76.51,110.21,77.78,112.57,80.27,113.37z M87.19,113.37
			c-0.28-1.18-0.56-2.26-0.94-3.29c-0.47,1.18-0.94,2.35-1.36,3.53C85.63,113.55,86.43,113.46,87.19,113.37z M91.42,114.12
			c-0.66,0.19-1.36,0.33-2.07,0.47c0.28,1.6,0.47,3.2,0.52,4.75C90.29,117.79,90.81,116.05,91.42,114.12z M108.53,117.88h-0.05
			c-3.67,0-6.63-2.16-6.63-5.41c0-4.75,2.68-12.55,6.35-16.69c1.22-1.41,2.77-2.4,4.94-2.4c2.4,0,5.03,1.18,5.03,4.61
			c0,3.95-4.8,13.49-10.58,13.49c-0.42,0-0.85-0.05-1.32-0.19c-0.05,0.52-0.09,0.99-0.09,1.41c0,1.5,0.56,2.49,1.83,2.96
			c5.83-0.8,11.28-10.34,14.25-17.54c0.33-0.05,0.38,0.05,0.38,0.28C122.64,100.76,114.93,117.88,108.53,117.88z M106.56,109.98
			c4.23-0.71,8.37-10.3,8.37-13.73c0-0.52-0.09-0.89-0.33-1.08C112.39,95.31,107.87,104.2,106.56,109.98z M125.08,115.06
			c0-1.18,1.08-3.67,1.97-6.39c-2.59,5.13-4.7,9.22-6.96,9.22c-1.65,0-3.76-1.6-3.76-3.76c0-2.68,1.03-6.58,2.45-10.11
			c2.16-5.5,4.8-10.58,7.99-10.58c1.65,0,3.62,1.46,3.86,4.09c0.52-1.27,0.99-2.54,1.41-3.62c1.93-0.05,3.43,0.09,3.43,1.83
			c0,1.18-1.36,5.17-2.92,9.26c-1.69,4.42-3.76,8.84-4.28,10.96c3.06-1.22,8.42-10.67,11.38-17.82c0.33-0.05,0.38,0.05,0.38,0.28
			c0,2.35-7.62,19.47-12.18,19.47C126.44,117.88,125.08,116.33,125.08,115.06z M127.01,105.75c1.13-2.45,2.54-5.13,2.54-6.86
			c0.05-1.6-0.71-2.54-1.5-2.54c-0.94,0-2.12,1.88-5.31,9.78c-1.69,4.14-2.63,8.32-2.4,9.59
			C122.02,114.92,124.61,110.64,127.01,105.75z M134.48,114.07c0-8.65,10.81-35.83,17.59-35.83c1.13,0,2.21,1.22,2.21,2.35
			c0,6.21-7.57,23.13-13.78,24.83c-1.08,3.43-1.79,6.3-1.79,8.28c0,0.89,0.19,1.6,0.52,2.07c3.71-1.83,8.89-10.63,11.76-17.63
			c0.33-0.05,0.38,0.05,0.38,0.28c0,2.35-7.62,19.47-13.07,19.47C136.41,117.88,134.48,116.19,134.48,114.07z M141.07,103.63
			c4-2.49,12.23-22.66,11.66-23.79c-1.97,0.75-6.86,10.25-10.11,19.37C142.05,100.72,141.54,102.22,141.07,103.63z M145.58,114.16
			c0-2.63,3.39-11.66,6.21-18.53c-0.94-0.05-1.79-0.14-2.49-0.24c-0.05-0.19-0.05-0.24-0.05-0.38c0-0.47,0.19-0.89,0.85-0.94
			c0.75-0.05,1.55-0.05,2.35-0.05c1.13-2.68,2.07-4.89,2.59-5.92c2.63-0.09,3.53,0.75,3.53,1.83c0,0.75-0.75,2.49-1.5,4.09
			c1.13,0,2.21,0.05,3.24,0.05c0.14,0.24,0.19,0.42,0.19,0.56c0,0.75-1.32,1.03-4.14,1.13c-1.6,3.95-3.43,8.75-5.69,14.95
			c-0.47,1.36-0.71,2.4-0.71,3.15c-0.05,0.85,0.19,1.36,0.56,1.74c3.62-2.16,7.81-10.72,10.63-17.49c0.33-0.05,0.38,0.05,0.38,0.28
			c0,2.3-7.15,19.47-11.99,19.47C147.46,117.88,145.58,116.23,145.58,114.16z M164.29,114.07c0-1.65,1.5-5.55,3.57-9.55
			c2.12-4.04,4.33-7.81,4.14-9.22c-2.4,0.09-11.28,16.55-13.82,22.38c-1.69-0.09-3.29-0.24-3.29-1.74c0-1.27,1.22-5.17,2.87-9.5
			c1.08-2.87,2.26-5.83,3.39-8.7c3.01-7.52,6.07-14.81,7.57-17.96c-0.99,0.24-1.79,0.33-2.45,0.33c-1.32,0-1.69-0.33-1.74-0.89
			c0-0.28,0.09-0.56,0.24-0.89c2.16,0.09,3.57-0.28,4.94-0.28c1.65,0,2.96,1.65,2.96,2.87c0,0.99-1.65,4.18-2.87,7.05
			c-2.26,5.31-4.89,11.71-7.19,18.06c3.53-6.77,6.77-12.51,9.69-12.51c1.65,0,3.95,0.8,3.95,2.96c0,1.6-1.6,5.22-3.76,9.5
			c-1.88,3.81-4.09,8.18-3.9,9.83c3.9-1.88,8.98-10.86,11.8-17.68c0.33-0.05,0.38,0.05,0.38,0.28c0,2.35-7.66,19.47-13.12,19.47
			C165.99,117.88,164.29,116.19,164.29,114.07z M169.04,127.33c0-2.87,1.88-5.83,8.28-7.15c1.13-0.28,2.68-0.56,4.33-1.03
			c1.36-3.76,2.73-7.66,3.81-10.49c-2.26,4.98-4.66,8.7-7.15,8.7c-1.5,0-3.81-0.85-3.81-3.2c0-4.75,6.49-15.61,6.58-18.95
			c-0.75,0.19-1.32,0.24-1.79,0.28c-0.94,0-1.27-0.33-1.27-0.85c0-0.19,0.05-0.38,0.14-0.61c1.41,0.05,2.77-0.24,4-0.24
			c1.03,0,2.49,0.94,2.49,3.57c0,3.2-6.49,15.19-6.11,17.68c2.87-0.14,8.6-11.66,11.71-21.07c0.42-0.05,0.85-0.05,1.27-0.05
			c1.41,0,2.45,0.28,2.45,1.13c0,1.27-1.74,5.45-3.2,9.92c-0.61,1.88-2.21,6.58-4.28,12.23c3.01-2.21,6.3-6.58,7.76-10.2
			c0.61-0.05,0.99,0.05,0.99,0.56c0,1.74-3.34,8.98-9.5,11.57c-0.71,1.88-1.46,3.86-2.26,5.83c-1.93,4.8-5.31,7.99-7.9,7.99
			C171.35,132.97,169.04,130.25,169.04,127.33z M180.99,120.94c-0.66,0.28-1.36,0.52-1.97,0.75c-3.43,1.22-5.69,2.4-5.69,5.13
			c0,1.93,1.27,3.71,3.39,3.76C177.69,129.68,179.29,125.59,180.99,120.94z"/>
	</g>
</g>
<g id="Layer_3">
	<g>
		<path d="M194.66,70.08L194.66,70.08c0,0,4.47-1.67,10.23,3.91c4.35,4.5,2.38,6.07,2.38,6.07s0.19,2.61,0.04,3.68
			c-0.15,1.08-1.45,1.53-1.45,1.53s-0.86,0.26-0.6,1.08c0.26,0.82,0.78,3.57,0.78,3.57s0.07,0.37-0.67,0.33
			c-0.74-0.04-1.45-0.45-1.45-0.45v1.08c0,0-0.04,0.52-0.63,0.41c0.15,0.86-0.74,0.6-0.74,0.6s-0.71,0.3-0.71,0.82
			s-0.26,1.94-1.79,1.53c-1.53-0.41-6.07-5.66-6.44-5.95c-0.37-0.3-0.71-0.33-0.48,0.3c0.22,0.63,2.87,4.28,3.98,4.99
			c-1.08,3.01,1.27,4.62,1.27,4.62s1.75,0.63,2.57,2.12c0.52,0.74,0.93,2.46,0.93,2.87c0,0,0.07,0.78-0.11,0.74
			c-0.19-0.04-1.94-0.41-3.5-1.97c0.11,1.75,6.89,6.4,8.34,7c1.45,0.6,4.39,4.47-0.33,10.2c1.94,8.86-0.63,15.67-0.63,15.67
			s-0.56,3.31-0.3,7.33c0.19,2.53-1.94,3.87-1.94,3.87s-0.3-3.35-3.54-6.89c3.54,6.89,2.75,11.76,2.75,11.76s-3.5-5.21-10.12-5.84
			c-6.62-0.63-11.43-2.05-11.35-8.15c-12.91-7-17.98-15.41-17.98-15.41s0.15-0.82,0.93-2.12s8.08-15.37,8.08-15.37
			s4.69-8.34,7.41-10.31c2.72-1.97,6.62-2.12,10.01,1.34c-0.58-2.49-3.59-3.98-3.59-3.98s3.47-2.54,2.57-6.06
			c-0.53-0.7-0.55,0.7-0.55,0.7c-0.65,2.9-3.48,4.59-3.48,4.59s-1.62,0.93-10.21,7.39c-9.98,7.85-6.22,14.12-6.22,14.12l-0.76,1.45
			c-9.56-11.15,8.2-19.53,8.2-19.53s-22.23,6.46-10.29,18.44c-15.62-14.02-1.14-18.06,3.37-19.2c4.51-1.14,5.78-1.88,5.78-1.88
			s-3.22,0.78-4.69,0.66c0,0-3.38,0.12-5.94-1.28c-4.22-1.95-3.65-5.84-3.65-5.84c2.74,6.14,9.46,1.57,9.46,1.57
			c-2.1,2.69-6.52,2.02-6.52,2.02c0.52,0.33,3.35,0.6,5.28-0.11c5.21-1.36,8.12-10.71,8.12-10.71s-1.86,2.66-4.33,3.67
			c-1.78,0.72-3.87,0.59-5.82-2.02c6.3,4.89,8.9-2.31,8.9-2.31s1.74-6.21,6.39-8.05c5.23-1.74,9.01,3.77,9.01,3.77
			C191.39,70.63,194.66,70.08,194.66,70.08z M180.94,131.03c1.81,1.53,2.52,2.01,3.72,1.31c1.21-0.7,3.22-0.4,3.22-0.4
			s2.41-3.82,1.14-6.13c1.95,1.11,6.2,6.13,6.2,6.13s-2.51-6.54-6.84-8.45c0.1-5.13-6.54-13.13-6.54-13.13s4.41-4.95,2.61-4.47
			c-5.23,2.31-12.17,13.87-12.17,13.87L180.94,131.03z"/>
		<path d="M208.26,108.53c0,0,2.96-1.58,4.37-8.38c3.01,1.22,4.05,0.5,4.05,0.5s1.18,9.39-7.97,20.96c0.1-1.61-1.01-3.53-1.01-3.53
			S212.64,113.66,208.26,108.53z"/>
		<circle class="st10" cx="215.52" cy="92.51" r="2.79"/>
		<circle class="st11" cx="215.54" cy="92.52" r="6.49"/>
		<path class="st12" d="M187.84,82.52"/>
		<path class="st12" d="M186.85,85.46"/>
		<path d="M170.85,79.42c0,0-5.47-1.04-1.71-5.99c-2.94,2.01-2.12,4.5-2.12,4.5S167.57,80.16,170.85,79.42z"/>
		<path d="M171.78,81.58c0,0-5.32,2.27-6.77-3.54c-0.11-2.05,0.97-3.46,0.97-3.46s-3.61,3.28-2.27,6.25
			c1.34,2.98,3.21,2.61,3.21,2.61s-3.99-1.53-2.31-6.4C165,85.04,171.78,81.58,171.78,81.58z"/>
		<path d="M168.65,85.07c0,0-4.65,2.34-6.36-2.23c-0.93-2.23,0.45-4.47,0.45-4.47s-2.91,2.73-1.04,6.29
			C164.03,88.01,167.35,86.41,168.65,85.07z"/>
		<path class="st12" d="M182.89,80.36"/>
		<path class="st12" d="M177.71,88.73"/>
		<path class="st12" d="M181.29,79.02"/>
		<path class="st12" d="M187.45,75.85"/>
		<path d="M157.36,101.84c0,0-3.66-5.33-0.38-7.93c3.28-2.59,6.2-1.39,6.2-1.39s-4.65,0.94-4.97,3.68c0.45-1.19,2.85-1.83,2.85-1.83
			S156.9,97.04,157.36,101.84z"/>
	</g>
	<g>
		<path class="st13" d="M47.85,115.13h-1.51V93.47h11.87v1.39H47.85v9.19h9.78v1.41h-9.78V115.13z"/>
		<path class="st13" d="M61,94.55c0-0.95,0.31-1.42,0.93-1.42c0.31,0,0.55,0.12,0.72,0.37c0.17,0.25,0.26,0.6,0.26,1.05
			c0,0.45-0.09,0.8-0.26,1.05c-0.17,0.26-0.41,0.39-0.72,0.39C61.31,95.99,61,95.51,61,94.55z M62.67,115.13H61.2V99.03h1.47V115.13
			z"/>
		<path class="st13" d="M72.32,114.12c0.93,0,1.74-0.08,2.43-0.24v1.19c-0.71,0.24-1.53,0.36-2.46,0.36c-1.42,0-2.47-0.38-3.15-1.14
			c-0.68-0.76-1.02-1.96-1.02-3.58v-10.4h-2.39v-0.86l2.39-0.67l0.74-3.64h0.76v3.9h4.73v1.27h-4.73v10.19
			c0,1.24,0.22,2.15,0.65,2.74C70.71,113.83,71.39,114.12,72.32,114.12z"/>
		<path class="st13" d="M85.24,109.64c0-1.36,0.36-2.52,1.09-3.48c0.73-0.96,2.08-1.97,4.07-3.04l-1.11-1.22
			c-0.65-0.7-1.14-1.39-1.45-2.06c-0.32-0.67-0.47-1.37-0.47-2.1c0-1.41,0.47-2.53,1.41-3.36c0.94-0.83,2.21-1.24,3.8-1.24
			c1.53,0,2.74,0.4,3.64,1.2s1.34,1.91,1.34,3.32c0,1.04-0.35,1.99-1.04,2.85c-0.69,0.86-1.94,1.82-3.75,2.88l6.7,6.77
			c0.6-0.71,1.12-1.49,1.54-2.33c0.43-0.84,0.8-1.83,1.11-2.98h1.42c-0.62,2.43-1.65,4.53-3.1,6.31l3.94,3.97h-2l-2.86-2.92
			c-0.91,0.89-1.72,1.54-2.43,1.95s-1.49,0.72-2.33,0.94c-0.84,0.22-1.81,0.33-2.88,0.33c-2.06,0-3.69-0.51-4.87-1.53
			C85.83,112.88,85.24,111.46,85.24,109.64z M91.98,114.09c1.26,0,2.42-0.22,3.47-0.64c1.05-0.43,2.09-1.15,3.1-2.17l-7.16-7.19
			c-1.34,0.71-2.31,1.32-2.91,1.82c-0.6,0.5-1.03,1.04-1.3,1.62c-0.27,0.58-0.41,1.26-0.41,2.05c0,1.41,0.46,2.52,1.38,3.32
			C89.07,113.69,90.35,114.09,91.98,114.09z M88.94,97.71c0,0.78,0.2,1.5,0.59,2.16c0.39,0.66,1.15,1.52,2.25,2.58
			c1.57-0.84,2.66-1.62,3.27-2.36c0.61-0.73,0.92-1.57,0.92-2.5c0-0.93-0.31-1.68-0.92-2.26c-0.61-0.58-1.44-0.87-2.49-0.87
			c-1.13,0-2.01,0.29-2.66,0.86C89.26,95.89,88.94,96.69,88.94,97.71z"/>
		<path class="st13" d="M121.61,100.3h-3.79v14.83h-1.47V100.3h-2.99v-0.86l2.99-0.55v-1.24c0-1.98,0.36-3.42,1.09-4.35
			c0.73-0.92,1.91-1.39,3.56-1.39c0.89,0,1.78,0.13,2.67,0.4l-0.34,1.27c-0.79-0.25-1.58-0.37-2.36-0.37
			c-1.15,0-1.96,0.34-2.44,1.01c-0.48,0.68-0.72,1.78-0.72,3.3v1.5h3.79V100.3z"/>
		<path class="st13" d="M134.5,115.13l-0.37-2.55h-0.12c-0.81,1.04-1.64,1.77-2.5,2.2c-0.86,0.43-1.87,0.64-3.03,0.64
			c-1.58,0-2.81-0.4-3.69-1.21c-0.88-0.81-1.32-1.93-1.32-3.36c0-1.57,0.65-2.79,1.96-3.66c1.31-0.87,3.2-1.33,5.68-1.38l3.07-0.09
			v-1.07c0-1.53-0.31-2.69-0.93-3.47c-0.62-0.78-1.62-1.17-3.01-1.17c-1.49,0-3.04,0.41-4.64,1.24l-0.55-1.27
			c1.77-0.83,3.52-1.24,5.24-1.24c1.77,0,3.09,0.46,3.96,1.38c0.87,0.92,1.31,2.35,1.31,4.3v10.71H134.5z M128.58,114.09
			c1.72,0,3.07-0.49,4.07-1.47c0.99-0.98,1.49-2.35,1.49-4.1v-1.59l-2.82,0.12c-2.26,0.11-3.87,0.46-4.84,1.06
			c-0.96,0.6-1.45,1.53-1.45,2.79c0,1.01,0.31,1.79,0.93,2.35C126.58,113.82,127.45,114.09,128.58,114.09z"/>
		<path class="st13" d="M147.6,98.71c2.25,0,3.95,0.71,5.09,2.13c1.14,1.42,1.71,3.49,1.71,6.22c0,2.68-0.6,4.74-1.8,6.19
			c-1.2,1.45-2.89,2.18-5.06,2.18c-1.15,0-2.18-0.24-3.1-0.71s-1.64-1.15-2.18-2.02h-0.13l-0.41,2.43h-0.92V92.08h1.47v5.79
			c0,0.87-0.02,1.67-0.06,2.4l-0.04,1.26h0.1c0.61-0.97,1.35-1.68,2.21-2.13C145.34,98.94,146.38,98.71,147.6,98.71z M147.57,100.05
			c-1.9,0-3.25,0.54-4.07,1.63c-0.82,1.09-1.23,2.88-1.23,5.38v0.25c0,2.43,0.43,4.17,1.28,5.23c0.85,1.06,2.19,1.58,3.99,1.58
			c1.76,0,3.08-0.61,3.97-1.84c0.89-1.23,1.33-2.98,1.33-5.25C152.84,102.37,151.09,100.05,147.57,100.05z"/>
	</g>
	<g>
		<path class="st14" d="M62.77,120.91l-4.19,12.69l4.59,15.41h-7.55l-2.96-12.05v12.05h-7.31v-28.1h7.31v10.92l3.25-10.92H62.77z"/>
		<path class="st14" d="M71.73,120.91v28.1h-7.31v-28.1H71.73z"/>
		<path class="st14" d="M91.73,133.15h-7.31v-4.88c0-1.42-0.08-2.31-0.23-2.66c-0.16-0.35-0.5-0.53-1.03-0.53
			c-0.6,0-0.98,0.22-1.14,0.64c-0.16,0.43-0.24,1.35-0.24,2.78v13.05c0,1.37,0.08,2.26,0.24,2.67c0.16,0.42,0.53,0.62,1.09,0.62
			c0.54,0,0.9-0.21,1.07-0.63c0.17-0.42,0.25-1.4,0.25-2.94v-3.53h7.31v1.09c0,2.91-0.21,4.97-0.62,6.19
			c-0.41,1.22-1.32,2.28-2.73,3.2c-1.41,0.92-3.14,1.37-5.2,1.37c-2.14,0-3.91-0.39-5.29-1.16c-1.39-0.78-2.31-1.85-2.76-3.22
			c-0.45-1.37-0.68-3.43-0.68-6.19v-8.21c0-2.02,0.07-3.54,0.21-4.56c0.14-1.01,0.55-1.99,1.24-2.93c0.69-0.94,1.64-1.67,2.86-2.21
			c1.22-0.54,2.62-0.81,4.21-0.81c2.15,0,3.93,0.42,5.33,1.25c1.4,0.83,2.32,1.87,2.76,3.11c0.44,1.24,0.66,3.17,0.66,5.8V133.15z"
			/>
		<path class="st14" d="M111.76,120.91l-4.19,12.69l4.59,15.41h-7.55l-2.96-12.05v12.05h-7.31v-28.1h7.31v10.92l3.25-10.92H111.76z"
			/>
		<path class="st14" d="M128.36,129.41h-6.79v-2.08c0-0.97-0.09-1.59-0.26-1.86c-0.17-0.27-0.46-0.4-0.87-0.4
			c-0.44,0-0.77,0.18-1,0.54c-0.23,0.36-0.34,0.9-0.34,1.63c0,0.94,0.13,1.64,0.38,2.12c0.24,0.47,0.93,1.05,2.07,1.72
			c3.25,1.93,5.3,3.51,6.15,4.75c0.84,1.24,1.27,3.24,1.27,5.99c0,2-0.23,3.48-0.7,4.43c-0.47,0.95-1.37,1.74-2.72,2.39
			c-1.34,0.64-2.9,0.96-4.69,0.96c-1.96,0-3.62-0.37-5.01-1.11c-1.38-0.74-2.29-1.68-2.72-2.83c-0.43-1.15-0.64-2.77-0.64-4.88
			v-1.84h6.79v3.42c0,1.05,0.1,1.73,0.29,2.03c0.19,0.3,0.53,0.45,1.02,0.45s0.85-0.19,1.08-0.57c0.24-0.38,0.36-0.95,0.36-1.7
			c0-1.65-0.23-2.74-0.68-3.25c-0.46-0.51-1.6-1.36-3.42-2.55c-1.82-1.2-3.02-2.08-3.61-2.62c-0.59-0.54-1.08-1.3-1.47-2.26
			c-0.39-0.96-0.58-2.19-0.58-3.68c0-2.15,0.28-3.73,0.82-4.72c0.55-0.99,1.44-1.77,2.66-2.33c1.23-0.56,2.71-0.84,4.44-0.84
			c1.9,0,3.51,0.31,4.85,0.92c1.34,0.61,2.22,1.39,2.66,2.32c0.43,0.93,0.65,2.51,0.65,4.75V129.41z"/>
		<path class="st14" d="M145.98,120.91v5.62h-4.34v22.48h-7.31v-22.48h-4.32v-5.62H145.98z"/>
		<path class="st14" d="M158.86,120.91l4.18,28.1h-7.47l-0.39-5.05h-2.61l-0.44,5.05h-7.55l3.73-28.1H158.86z M154.98,138.98
			c-0.37-3.18-0.74-7.12-1.11-11.8c-0.74,5.38-1.21,9.31-1.4,11.8H154.98z"/>
		<path class="st14" d="M164.28,120.91h5.17c3.45,0,5.78,0.13,7,0.4c1.22,0.27,2.22,0.95,2.99,2.04c0.77,1.09,1.15,2.84,1.15,5.23
			c0,2.19-0.27,3.66-0.82,4.41c-0.54,0.75-1.61,1.2-3.21,1.35c1.45,0.36,2.42,0.84,2.92,1.44c0.5,0.6,0.81,1.15,0.93,1.66
			c0.12,0.5,0.18,1.89,0.18,4.16v7.41h-6.79v-9.34c0-1.5-0.12-2.44-0.36-2.79c-0.24-0.36-0.86-0.54-1.87-0.54v12.67h-7.31V120.91z
			 M171.58,125.72v6.25c0.82,0,1.4-0.11,1.73-0.34c0.33-0.23,0.49-0.96,0.49-2.2v-1.54c0-0.89-0.16-1.48-0.48-1.75
			C173.01,125.86,172.43,125.72,171.58,125.72z"/>
		<path class="st14" d="M198.14,120.91v5.62h-4.34v22.48h-7.31v-22.48h-4.32v-5.62H198.14z"/>
	</g>
	<g>
		<rect x="74.46" y="161.9" class="st15" width="13.95" height="0.34"/>
	</g>
	<g>
		<rect x="153.78" y="161.9" class="st15" width="13.95" height="0.34"/>
	</g>
	<g>
		<path class="st15" d="M92.54,155.62h2.72c1.22,0,2.12,0.21,2.7,0.62c0.57,0.42,0.86,1.04,0.86,1.88c0,0.57-0.18,1.05-0.53,1.43
			c-0.35,0.38-0.86,0.63-1.53,0.74v0.04c0.79,0.12,1.37,0.37,1.74,0.75c0.37,0.38,0.56,0.91,0.56,1.6c0,0.91-0.3,1.61-0.91,2.11
			c-0.61,0.49-1.46,0.74-2.57,0.74h-3.03V155.62z M93.23,160.03h2.18c0.93,0,1.61-0.15,2.03-0.46c0.42-0.31,0.63-0.79,0.63-1.45
			c0-0.66-0.24-1.14-0.71-1.44c-0.48-0.3-1.19-0.45-2.13-0.45h-2V160.03z M93.23,160.64v4.27h2.33c1.83,0,2.75-0.75,2.75-2.24
			c0-1.36-0.97-2.04-2.9-2.04H93.23z"/>
		<path class="st15" d="M107.16,161.83c0,1.2-0.29,2.14-0.87,2.81c-0.58,0.68-1.39,1.01-2.41,1.01c-0.65,0-1.21-0.16-1.71-0.47
			c-0.49-0.31-0.87-0.76-1.13-1.34c-0.26-0.58-0.39-1.26-0.39-2.02c0-1.2,0.29-2.14,0.87-2.81c0.58-0.67,1.38-1.01,2.4-1.01
			c1.01,0,1.81,0.34,2.38,1.02C106.87,159.72,107.16,160.65,107.16,161.83z M101.35,161.83c0,1.01,0.22,1.8,0.67,2.37
			c0.44,0.57,1.07,0.85,1.89,0.85c0.81,0,1.44-0.28,1.89-0.85c0.44-0.57,0.67-1.36,0.67-2.37c0-1.02-0.22-1.8-0.67-2.36
			c-0.45-0.56-1.08-0.84-1.89-0.84c-0.81,0-1.44,0.28-1.88,0.84C101.57,160.02,101.35,160.81,101.35,161.83z"/>
		<path class="st15" d="M115.29,161.83c0,1.2-0.29,2.14-0.87,2.81c-0.58,0.68-1.39,1.01-2.41,1.01c-0.65,0-1.21-0.16-1.71-0.47
			c-0.49-0.31-0.87-0.76-1.13-1.34c-0.26-0.58-0.39-1.26-0.39-2.02c0-1.2,0.29-2.14,0.87-2.81c0.58-0.67,1.38-1.01,2.4-1.01
			c1.01,0,1.81,0.34,2.38,1.02C115,159.72,115.29,160.65,115.29,161.83z M109.48,161.83c0,1.01,0.22,1.8,0.67,2.37
			c0.44,0.57,1.07,0.85,1.89,0.85c0.81,0,1.44-0.28,1.89-0.85c0.44-0.57,0.67-1.36,0.67-2.37c0-1.02-0.22-1.8-0.67-2.36
			c-0.45-0.56-1.08-0.84-1.89-0.84c-0.81,0-1.44,0.28-1.88,0.84C109.7,160.02,109.48,160.81,109.48,161.83z"/>
		<path class="st15" d="M121.89,163.61c0,0.66-0.25,1.17-0.75,1.52c-0.5,0.35-1.21,0.53-2.13,0.53c-0.98,0-1.77-0.15-2.34-0.45
			v-0.72c0.74,0.37,1.52,0.56,2.34,0.56c0.73,0,1.28-0.12,1.66-0.36c0.38-0.24,0.57-0.56,0.57-0.97c0-0.37-0.15-0.68-0.45-0.93
			c-0.3-0.25-0.79-0.5-1.48-0.75c-0.74-0.27-1.25-0.5-1.55-0.69c-0.3-0.19-0.52-0.41-0.67-0.65c-0.15-0.24-0.23-0.54-0.23-0.88
			c0-0.55,0.23-0.99,0.69-1.31c0.46-0.32,1.11-0.48,1.94-0.48c0.79,0,1.55,0.15,2.26,0.45l-0.25,0.61c-0.72-0.3-1.39-0.45-2.01-0.45
			c-0.6,0-1.08,0.1-1.43,0.3c-0.35,0.2-0.53,0.47-0.53,0.83c0,0.38,0.14,0.69,0.41,0.92c0.27,0.23,0.81,0.49,1.6,0.77
			c0.66,0.24,1.15,0.46,1.45,0.65c0.3,0.19,0.53,0.41,0.68,0.65C121.82,162.99,121.89,163.28,121.89,163.61z"/>
		<path class="st15" d="M125.74,165.06c0.42,0,0.79-0.04,1.11-0.11v0.54c-0.33,0.11-0.7,0.16-1.12,0.16c-0.65,0-1.13-0.17-1.44-0.52
			c-0.31-0.35-0.46-0.89-0.46-1.64v-4.76h-1.09v-0.39l1.09-0.3l0.34-1.67h0.35v1.78h2.16v0.58h-2.16v4.66c0,0.56,0.1,0.98,0.3,1.25
			C125,164.93,125.31,165.06,125.74,165.06z"/>
		<path class="st15" d="M128.61,155.62h2.72c1.22,0,2.12,0.21,2.7,0.62c0.57,0.42,0.86,1.04,0.86,1.88c0,0.57-0.18,1.05-0.53,1.43
			c-0.35,0.38-0.86,0.63-1.53,0.74v0.04c0.79,0.12,1.37,0.37,1.74,0.75c0.37,0.38,0.56,0.91,0.56,1.6c0,0.91-0.3,1.61-0.91,2.11
			c-0.61,0.49-1.46,0.74-2.57,0.74h-3.03V155.62z M129.3,160.03h2.18c0.93,0,1.61-0.15,2.03-0.46c0.42-0.31,0.63-0.79,0.63-1.45
			c0-0.66-0.24-1.14-0.71-1.44c-0.48-0.3-1.19-0.45-2.13-0.45h-2V160.03z M129.3,160.64v4.27h2.33c1.83,0,2.75-0.75,2.75-2.24
			c0-1.36-0.97-2.04-2.9-2.04H129.3z"/>
		<path class="st15" d="M143.23,161.83c0,1.2-0.29,2.14-0.87,2.81c-0.58,0.68-1.39,1.01-2.41,1.01c-0.65,0-1.21-0.16-1.71-0.47
			c-0.49-0.31-0.87-0.76-1.13-1.34c-0.26-0.58-0.39-1.26-0.39-2.02c0-1.2,0.29-2.14,0.87-2.81c0.58-0.67,1.38-1.01,2.4-1.01
			c1.01,0,1.81,0.34,2.38,1.02C142.94,159.72,143.23,160.65,143.23,161.83z M137.41,161.83c0,1.01,0.22,1.8,0.67,2.37
			c0.44,0.57,1.07,0.85,1.89,0.85c0.81,0,1.44-0.28,1.89-0.85s0.67-1.36,0.67-2.37c0-1.02-0.22-1.8-0.67-2.36
			c-0.45-0.56-1.08-0.84-1.89-0.84c-0.81,0-1.44,0.28-1.88,0.84C137.63,160.02,137.41,160.81,137.41,161.83z"/>
		<path class="st15" d="M147.07,161.74l-2.57-3.58h0.77l2.19,3.1l2.17-3.1h0.74l-2.53,3.58l2.71,3.79h-0.78l-2.32-3.29l-2.33,3.29
			h-0.74L147.07,161.74z"/>
	</g>
</g>
</svg>
